<?xml version="1.0" encoding="UTF-8"?>
<svg xmlns="http://www.w3.org/2000/svg" xmlns:xlink="http://www.w3.org/1999/xlink" version="1.1" viewBox="0 0 723.2 376.9">
  <defs>
    <style>
      .cls-1 {
        filter: url(#drop-shadow-1);
      }

      .cls-2 {
        fill: url(#linear-gradient-8);
      }

      .cls-3 {
        fill: url(#linear-gradient-7);
      }

      .cls-4 {
        fill: url(#linear-gradient-5);
      }

      .cls-5 {
        fill: url(#linear-gradient-6);
      }

      .cls-6 {
        fill: url(#linear-gradient-9);
      }

      .cls-7 {
        fill: url(#linear-gradient-3);
      }

      .cls-8 {
        fill: url(#linear-gradient-2);
      }

      .cls-9 {
        fill: #a7a9ac;
      }

      .cls-9, .cls-10, .cls-11, .cls-12 {
        mix-blend-mode: overlay;
      }

      .cls-13 {
        fill: #231f20;
      }

      .cls-10, .cls-14 {
        fill: #fff;
      }

      .cls-15 {
        fill: url(#linear-gradient);
      }

      .cls-16 {
        isolation: isolate;
      }

      .cls-11 {
        fill: url(#linear-gradient-4);
      }

      .cls-17 {
        fill: url(#linear-gradient-10);
      }

      .cls-18 {
        fill: url(#linear-gradient-11);
      }

      .cls-19 {
        fill: url(#linear-gradient-12);
      }

      .cls-20 {
        fill: #e6e7e8;
      }
    </style>
    <linearGradient id="linear-gradient" x1="38.3" y1="194.6" x2="38.3" y2="239.6" gradientUnits="userSpaceOnUse">
      <stop offset="0" stop-color="#be1e2d"/>
      <stop offset=".5" stop-color="#ec1c24"/>
      <stop offset="1" stop-color="#cf232a"/>
    </linearGradient>
    <linearGradient id="linear-gradient-2" x1="361.5" y1="-95.3" x2="361.5" y2="465.4" gradientUnits="userSpaceOnUse">
      <stop offset="0" stop-color="#e5e2df"/>
      <stop offset="0" stop-color="#ded9d6"/>
      <stop offset="0" stop-color="#cfcac8"/>
      <stop offset=".1" stop-color="#a8a4a6"/>
      <stop offset=".2" stop-color="#8b878d"/>
      <stop offset=".2" stop-color="#b2b0b3"/>
      <stop offset=".3" stop-color="#d5d4d6"/>
      <stop offset=".4" stop-color="#ebebec"/>
      <stop offset=".5" stop-color="#f3f4f4"/>
      <stop offset=".5" stop-color="#e4e5e5"/>
      <stop offset=".6" stop-color="#bfbec0"/>
      <stop offset=".7" stop-color="#847f84"/>
      <stop offset=".7" stop-color="#807b80"/>
      <stop offset=".8" stop-color="#fff"/>
      <stop offset=".9" stop-color="#d1d3d4"/>
      <stop offset="1" stop-color="#a7a9ac"/>
    </linearGradient>
    <linearGradient id="linear-gradient-3" x1="684.8" y1="117.5" x2="684.8" y2="176.2" xlink:href="#linear-gradient"/>
    <linearGradient id="linear-gradient-4" x1="38.3" y1="10.5" x2="38.3" y2="199.5" gradientUnits="userSpaceOnUse">
      <stop offset="0" stop-color="#e5e2df"/>
      <stop offset="0" stop-color="#ded9d6"/>
      <stop offset="0" stop-color="#cfcac8"/>
      <stop offset=".2" stop-color="#a8a4a6"/>
      <stop offset=".3" stop-color="#8b878d"/>
      <stop offset=".5" stop-color="#f3f4f4"/>
      <stop offset=".6" stop-color="#e4e5e5"/>
      <stop offset=".7" stop-color="#bfbec0"/>
      <stop offset=".9" stop-color="#847f84"/>
      <stop offset=".9" stop-color="#807b80"/>
      <stop offset="1" stop-color="#d1d3d4"/>
      <stop offset="1" stop-color="#a7a9ac"/>
    </linearGradient>
    <filter id="drop-shadow-1" filterUnits="userSpaceOnUse">
      <feOffset dx=".7" dy=".6"/>
      <feGaussianBlur result="blur" stdDeviation="3.1"/>
      <feFlood flood-color="#231f20" flood-opacity=".6"/>
      <feComposite in2="blur" operator="in"/>
      <feComposite in="SourceGraphic"/>
    </filter>
    <linearGradient id="linear-gradient-5" x1="205" y1="177.8" x2="205" y2="312.8" xlink:href="#linear-gradient"/>
    <linearGradient id="linear-gradient-6" x1="319.6" y1="230.5" x2="319.6" y2="320.3" xlink:href="#linear-gradient"/>
    <linearGradient id="linear-gradient-7" x1="376.8" y1="230.5" x2="376.8" y2="320.3" xlink:href="#linear-gradient"/>
    <linearGradient id="linear-gradient-8" x1="434.6" y1="230.5" x2="434.6" y2="320.3" xlink:href="#linear-gradient"/>
    <linearGradient id="linear-gradient-9" x1="470.6" y1="230.5" x2="470.6" y2="320.3" xlink:href="#linear-gradient"/>
    <linearGradient id="linear-gradient-10" x1="505.4" y1="230.5" x2="505.4" y2="320.3" xlink:href="#linear-gradient"/>
    <linearGradient id="linear-gradient-11" x1="559.1" y1="230.5" x2="559.1" y2="320.3" xlink:href="#linear-gradient"/>
    <linearGradient id="linear-gradient-12" x1="615" y1="230.5" x2="615" y2="320.3" xlink:href="#linear-gradient"/>
  </defs>
  <!-- Generator: Adobe Illustrator 28.6.0, SVG Export Plug-In . SVG Version: 1.2.0 Build 709)  -->
  <g class="cls-16">
    <g id="Layer_1">
      <g>
        <g>
          <g class="cls-12">
            <polygon class="cls-13" points="68.7 205.9 7.9 205.9 7.9 220.3 68.7 256.6 68.7 205.9"/>
            <path class="cls-20" d="M68.7,264.5c-1.4,0-2.8-.4-4.1-1.1L3.9,227.1C1.5,225.7,0,223.1,0,220.3v-14.4c0-4.4,3.5-7.9,7.9-7.9h60.8c4.4,0,7.9,3.5,7.9,7.9v50.7c0,2.8-1.5,5.5-4,6.9-1.2.7-2.6,1-3.9,1ZM15.8,215.9l45,26.9v-28.9H15.8v2Z"/>
          </g>
          <g class="cls-12">
            <polygon class="cls-13" points="715.2 155.8 654.3 119.5 654.3 170.2 715.2 170.2 715.2 155.8"/>
            <path class="cls-20" d="M715.2,178.1h-60.8c-4.4,0-7.9-3.5-7.9-7.9v-50.7c0-2.8,1.5-5.5,4-6.9,2.5-1.4,5.5-1.4,8,0l60.8,36.3c2.4,1.4,3.9,4,3.9,6.8v14.4c0,4.4-3.5,7.9-7.9,7.9ZM662.3,162.3h45v-2l-45-26.9v28.9Z"/>
          </g>
          <g class="cls-12">
            <polygon class="cls-13" points="715.2 313.3 715.2 187.6 654.3 187.6 654.3 313.3 654.3 313.3 654.3 313.4 133.3 313.4 291.3 46.8 269.4 7.9 68.7 7.9 7.9 36 7.9 188.6 68.7 188.6 68.7 63.5 202.8 63.5 41.3 335.6 88.7 368.9 654.3 368.9 654.3 368.9 715.2 340.1 715.3 313.3 715.2 313.3"/>
            <path class="cls-20" d="M654.3,376.9H88.7c-1.6,0-3.2-.5-4.6-1.4l-47.4-33.4c-3.4-2.4-4.4-7-2.2-10.5L188.9,71.4h-112.2v117.2c0,4.4-3.5,7.9-7.9,7.9H7.9s0,0,0,0c-2.1,0-4.1-.8-5.6-2.3-1.5-1.5-2.3-3.5-2.3-5.6V36c0-3.1,1.8-5.9,4.6-7.2L65.4.7c1-.5,2.2-.7,3.3-.7h200.6c2.9,0,5.5,1.5,6.9,4l21.9,38.9c1.4,2.5,1.4,5.5,0,7.9l-150.9,254.6h499.2v-117.9c0-4.4,3.5-7.9,7.9-7.9h60.8c4.4,0,7.9,3.5,7.9,7.9v124.3c0,.5.1,1,.1,1.5v26.8c-.2,3-1.9,5.8-4.7,7.1l-60.8,28.8c-1.1.5-2.2.8-3.4.8ZM91.2,361h561.4l54.7-25.9v-20.4c0-.5,0-.9,0-1.4v-117.8h-45v117.8c0,2.9-1.6,5.5-3.9,6.8-1.2.7-2.6,1.1-4.1,1.1H133.3c-2.8,0-5.5-1.5-6.9-4-1.4-2.5-1.4-5.5,0-7.9L282.2,46.7l-17.4-30.9H70.5L15.8,41.1v139.6s45,0,45,0V63.5c0-4.4,3.5-7.9,7.9-7.9h134c2.8,0,5.5,1.5,6.9,4,1.4,2.5,1.4,5.5,0,8L51.8,333.3l39.4,27.7Z"/>
          </g>
        </g>
        <g>
          <polygon class="cls-15" points="68.7 256.6 68.7 205.9 7.9 205.9 7.9 220.3 68.7 256.6"/>
          <polygon class="cls-8" points="654.3 187.6 654.3 313.4 133.3 313.4 291.3 46.8 269.4 7.9 68.7 7.9 7.9 36 7.9 188.6 68.7 188.6 68.7 63.5 202.8 63.5 41.3 335.6 88.7 368.9 654.3 368.9 654.3 368.9 654.3 368.9 715.2 340.1 715.2 187.6 654.3 187.6"/>
          <polygon class="cls-7" points="654.3 119.5 654.3 170.2 715.2 170.2 715.2 155.8 654.3 119.5"/>
          <polygon class="cls-11" points="68.7 188.6 7.9 188.6 7.9 36 68.7 7.9 68.7 188.6"/>
          <polygon class="cls-9" points="715.3 313.3 654.3 313.3 654.3 313.4 54.5 313.4 41.3 335.6 88.7 368.9 654.3 368.9 658.9 366.8 715.2 340.1 715.3 313.3"/>
        </g>
        <g class="cls-16">
          <path class="cls-10" d="M68.7,257.8c.2,0,.4,0,.6-.2.4-.2.6-.6.6-1v-50.7c0-.7-.5-1.2-1.2-1.2H7.9c-.7,0-1.2.5-1.2,1.2v14.4c0,.4.2.8.6,1l60.8,36.3c.2.1.4.2.6.2ZM67.5,254.5l-58.4-34.9v-12.5h58.4v47.4Z"/>
          <path class="cls-10" d="M716.4,312.8v-125.2c0-.7-.5-1.2-1.2-1.2h-60.8c-.7,0-1.2.5-1.2,1.2v124.6H135.4L292.3,47.4c.2-.4.2-.8,0-1.2l-21.9-38.9c-.2-.4-.6-.6-1-.6H68.7c-.2,0-.3,0-.5.1L7.4,34.9c-.3.1-.5.4-.6.7,0,.1,0,.2,0,.3v152.6c0,.3.1.6.3.8.2.2.5.4.8.4h60.8c.7,0,1.2-.6,1.2-1.2v-123.9h130.7L40.3,334.9h0c0,0,0,.1,0,.1,0,0,0,0,0,.1-.2.5,0,1.1.4,1.5l47.5,33.4c.2.1.4.2.7.2h565.6c.2,0,.4,0,.5-.1l60.8-28.8c.1,0,.2-.1.3-.2,0,0,0,0,0,0,0,0,.1-.1.1-.2,0,0,0-.1,0-.2,0,0,0,0,0-.1,0,0,0-.1,0-.2,0,0,0-.1,0-.2v-26.8c.1-.2,0-.4,0-.5ZM67.5,63.5v123.9H9.1V36.8l58.4-27v53.7ZM203.8,64.1c.2-.4.2-.8,0-1.2-.2-.4-.6-.6-1-.6H69.9V9.1h198.7l21.3,37.7-157.3,265.4H56.5L203.8,64.1ZM714,339.4l-59.9,28.4H89.1l-46.2-32.5,12.3-20.7h599.2c0,0,.2,0,.2,0,0,0,0,0,0,0h59.3v24.9ZM714,312.1h-58.4v-123.3h58.4v123.3Z"/>
          <path class="cls-10" d="M654.3,171.4h60.8c.7,0,1.2-.5,1.2-1.2v-14.4c0-.4-.2-.8-.6-1l-60.8-36.3c-.4-.2-.8-.2-1.2,0-.4.2-.6.6-.6,1v50.7c0,.7.5,1.2,1.2,1.2ZM655.5,121.6l58.4,34.9v12.5h-58.4v-47.4Z"/>
        </g>
        <g class="cls-1">
          <path class="cls-4" d="M285.1,273.1c0,11.3-3.4,20.9-10.2,28.9-7.3,8.3-16.5,12.5-27.7,12.5h-115.9v-31.3h115.9c4.3,0,6.5-3.3,6.5-10s-2.2-10-6.5-10h-84.3c-11.1,0-20.4-4.2-27.7-12.5-7-7.8-10.4-17.4-10.4-28.7s3.6-21,10.7-29.2c7.1-8.2,16.3-12.3,27.4-12.3h115.9v31.3h-116.1c-4.4,0-6.5,3.4-6.5,10.2s2.2,9.9,6.5,9.9h84.5c11.2,0,20.4,4.2,27.7,12.5,6.8,8,10.2,17.6,10.2,28.9Z"/>
          <path class="cls-14" d="M274.9,184.3v23.4h-112.1c-3.2,0-10.5,1.4-10.5,14.1s7.3,13.9,10.5,13.9h84.5c10.1,0,18.1,3.6,24.7,11.1,6.2,7.3,9.3,15.9,9.3,26.3s-3,19-9.2,26.3c-6.6,7.5-14.7,11.1-24.7,11.1h-111.9v-23.4h111.9c3.2,0,10.5-1.4,10.5-14s-7.3-14-10.5-14h-84.3c-10,0-18.1-3.7-24.7-11.2-6.3-7.1-9.4-15.7-9.4-26.1s3.2-19.1,9.7-26.6c6.4-7.3,14.4-10.9,24.4-10.9h111.9M278.8,180.4h-115.9c-11.1,0-20.3,4.1-27.4,12.3-7.1,8.2-10.7,17.9-10.7,29.2s3.5,20.9,10.4,28.7c7.3,8.4,16.5,12.5,27.7,12.5h84.3c4.3,0,6.5,3.3,6.5,10s-2.2,10-6.5,10h-115.9v31.3h115.9c11.1,0,20.4-4.2,27.7-12.5,6.8-8,10.2-17.6,10.2-28.9s-3.4-20.9-10.2-28.9c-7.3-8.3-16.6-12.5-27.7-12.5h-84.5c-4.4,0-6.5-3.3-6.5-9.9s2.2-10.2,6.5-10.2h116.1v-31.3h0Z"/>
        </g>
        <g>
          <g>
            <path class="cls-5" d="M343.8,243.9h-37.9v6.8h35.5v10.6h-35.5v6.8h37.8v10.6h-48.5v-45.4h48.5v10.6Z"/>
            <path class="cls-14" d="M345.2,280.2h-51.4v-48.4h51.5v13.6h-37.9v3.8h35.5v13.6h-35.5v3.8h37.8v13.6ZM296.8,277.2h45.5v-7.6h-37.8v-9.8h35.5v-7.6h-35.5v-9.8h37.9v-7.6h-45.6v42.5Z"/>
          </g>
          <g>
            <path class="cls-3" d="M401.7,278.7h-14.5l-22.7-25.5h27.3c1.9,0,2.9-1.6,2.9-4.7s-1-4.7-2.9-4.7h-32.9v34.8h-10.6v-45.4h44.1c4.1,0,7.3,1.6,9.6,4.8,2.2,2.9,3.3,6.4,3.3,10.5s-1.1,7.6-3.3,10.5c-2.4,3.2-5.6,4.8-9.6,4.8h-4.1l13.4,14.9Z"/>
            <path class="cls-14" d="M405,280.2h-18.5l-25.4-28.4h30.6c.4,0,1.4,0,1.4-3.2s-1-3.2-1.4-3.2h-31.4v34.8h-13.6v-48.4h45.6c4.5,0,8.2,1.8,10.8,5.4,2.4,3.1,3.6,7,3.6,11.4s-1.2,8.3-3.6,11.4c-2.6,3.6-6.3,5.4-10.8,5.4h-.7l13.4,14.9ZM387.8,277.2h10.5l-13.4-14.9h7.4c3.6,0,6.4-1.4,8.4-4.2,2-2.6,3-5.9,3-9.6s-1-7-3-9.6c-2.1-2.8-4.8-4.2-8.5-4.2h-42.6v42.5h7.6v-34.8h34.4c1.6,0,4.4.8,4.4,6.2s-2.8,6.2-4.4,6.2h-24l20.1,22.5Z"/>
          </g>
          <g>
            <path class="cls-2" d="M462.3,233.3l-23.2,45.4h-9l-23.3-45.4h11.8l16,31.1,15.7-31.1h11.8Z"/>
            <path class="cls-14" d="M440.1,280.2h-10.8l-24.8-48.4h15.2l15.1,29.3,14.8-29.3h15.2l-24.7,48.4ZM431.1,277.2h7.2l21.7-42.5h-8.5l-16.6,32.9-16.9-32.9h-8.5l21.7,42.5Z"/>
          </g>
          <g>
            <path class="cls-6" d="M475.9,278.7h-10.6v-45.4h10.6v45.4Z"/>
            <path class="cls-14" d="M477.4,280.2h-13.6v-48.4h13.6v48.4ZM466.8,277.2h7.6v-42.5h-7.6v42.5Z"/>
          </g>
          <g>
            <path class="cls-17" d="M530.4,278.7h-35.2c-4.1,0-7.6-1.4-10.5-4.1-2.9-2.7-4.3-6.2-4.3-10.3v-16.7c0-4.1,1.4-7.5,4.3-10.3,2.9-2.7,6.4-4.1,10.5-4.1h35.2v10.6h-35.2c-2.8,0-4.2,1.3-4.2,3.8v16.7c0,2.5,1.4,3.8,4.2,3.8h35.2v10.6Z"/>
            <path class="cls-14" d="M531.9,280.2h-36.7c-4.5,0-8.4-1.5-11.5-4.5-3.2-3-4.8-6.8-4.8-11.4v-16.7c0-4.5,1.6-8.3,4.8-11.4,3.2-3,7-4.5,11.5-4.5h36.7v13.6h-36.7c-2.3,0-2.8.9-2.8,2.3v16.7c0,1.4.5,2.3,2.8,2.3h36.7v13.6ZM495.2,234.7c-3.8,0-6.9,1.2-9.5,3.7-2.6,2.5-3.9,5.5-3.9,9.2v16.7c0,3.7,1.3,6.7,3.9,9.2,2.6,2.5,5.7,3.7,9.5,3.7h33.7v-7.6h-33.7c-3.6,0-5.7-1.9-5.7-5.3v-16.7c0-3.3,2.1-5.3,5.7-5.3h33.7v-7.6h-33.7Z"/>
          </g>
          <g>
            <path class="cls-18" d="M583.4,243.9h-37.9v6.8h35.5v10.6h-35.5v6.8h37.8v10.6h-48.5v-45.4h48.5v10.6Z"/>
            <path class="cls-14" d="M584.8,280.2h-51.4v-48.4h51.5v13.6h-37.9v3.8h35.5v13.6h-35.5v3.8h37.8v13.6ZM536.3,277.2h45.5v-7.6h-37.8v-9.8h35.5v-7.6h-35.5v-9.8h37.9v-7.6h-45.6v42.5Z"/>
          </g>
          <g>
            <path class="cls-19" d="M642.1,264.7c0,3.8-1.2,7.1-3.4,9.8-2.5,2.8-5.6,4.2-9.4,4.2h-39.3v-10.6h39.3c1.5,0,2.2-1.1,2.2-3.4s-.7-3.4-2.2-3.4h-28.6c-3.8,0-6.9-1.4-9.4-4.2-2.4-2.7-3.5-5.9-3.5-9.7s1.2-7.1,3.6-9.9c2.4-2.8,5.5-4.2,9.3-4.2h39.3v10.6h-39.3c-1.5,0-2.2,1.1-2.2,3.4s.7,3.4,2.2,3.4h28.6c3.8,0,6.9,1.4,9.4,4.2,2.3,2.7,3.5,6,3.5,9.8Z"/>
            <path class="cls-14" d="M629.3,280.2h-40.7v-13.6h40.7c.2,0,.7,0,.7-1.9s-.5-1.9-.7-1.9h-28.6c-4.2,0-7.7-1.6-10.5-4.8-2.6-2.9-3.9-6.5-3.9-10.7s1.3-7.8,4-10.9c2.7-3.1,6.2-4.7,10.4-4.7h40.7v13.6h-40.8c-.2,0-.7,0-.7,2s.5,1.9.7,1.9h28.6c4.2,0,7.7,1.6,10.5,4.7,2.5,3,3.8,6.6,3.8,10.8s-1.3,7.8-3.8,10.7c-2.8,3.2-6.3,4.8-10.5,4.8ZM591.5,277.2h37.8c3.4,0,6.1-1.2,8.3-3.7,2.1-2.4,3.1-5.3,3.1-8.8s-1-6.4-3.1-8.8c-2.2-2.5-4.9-3.7-8.3-3.7h-28.6c-1.1,0-3.7-.5-3.7-4.8s2.6-4.9,3.7-4.9h37.9v-7.6h-37.8c-3.4,0-6,1.2-8.2,3.6-2.2,2.5-3.3,5.4-3.3,8.9s1,6.3,3.2,8.7c2.2,2.5,4.9,3.7,8.3,3.7h28.6c1.1,0,3.7.5,3.7,4.9s-2.6,4.9-3.7,4.9h-37.8v7.6Z"/>
          </g>
        </g>
      </g>
    </g>
  </g>
</svg>