<?xml version="1.0" encoding="UTF-8"?>
<svg xmlns="http://www.w3.org/2000/svg" version="1.1" viewBox="0 0 587.1 222.8">
  <defs>
    <style>
      .cls-1 {
        fill: #ad890f;
      }

      .cls-2 {
        fill: #1d1d1b;
      }
    </style>
  </defs>
  <!-- Generator: Adobe Illustrator 28.6.0, SVG Export Plug-In . SVG Version: 1.2.0 Build 709)  -->
  <g>
    <g id="Layer_1">
      <g>
        <polygon points="293.8 73.4 268.3 73.4 268.3 103 255.7 103 255.7 33.7 268.3 33.7 268.3 61.7 293.8 61.7 293.8 33.7 306.3 33.7 306.3 103 293.8 103 293.8 73.4"/>
        <path d="M372.9,32.7c16.8,0,31.3,15.3,31.3,35.6s-13.7,35.6-31.3,35.6-31.2-15.3-31.2-35.6,13.7-35.6,31.2-35.6M372.9,92.3c11.2,0,18.7-10,18.7-24s-7.3-24-18.7-24-18.6,10.7-18.6,24,7.3,24,18.6,24"/>
        <path d="M467.9,32.7c16.8,0,31.3,15.3,31.3,35.6s-13.7,35.6-31.3,35.6-31.2-15.3-31.2-35.6,13.7-35.6,31.2-35.6M467.9,92.3c11.2,0,18.7-10,18.7-24s-7.3-24-18.7-24-18.6,10.7-18.6,24,7.3,24,18.6,24"/>
        <polygon points="551.8 75 547.6 80.6 547.6 103 535 103 535 33.7 547.6 33.7 547.6 61.7 548.1 61.9 567.7 33.7 582.8 33.7 583 34.2 560 64.2 587.1 102.5 586.8 103 571.3 103 551.8 75"/>
        <polygon class="cls-2" points="255.7 147.5 261.5 147.5 261.5 182.7 276.6 182.7 276.6 188.2 255.7 188.2 255.7 147.5"/>
        <polygon class="cls-2" points="328.5 188.2 328.5 147.5 350.4 147.5 350.4 152.9 334.2 152.9 334.2 164.6 349.6 164.6 349.6 170.1 334.2 170.1 334.2 182.7 350.4 182.7 350.4 188.2 328.5 188.2"/>
        <path class="cls-2" d="M419.7,183.3c2,0,3.8-.1,5.6-.4v-13.8h5.7v17.5c-3.6,1.7-7.1,2.2-11.3,2.2-10.2,0-18-9-18-21s7.8-21,18-21,6.7.3,9.7,1.9l-1.2,5.1c-2.3-.9-4.9-1.5-8.4-1.5-7,0-12.3,7.1-12.3,15.5s5.3,15.5,12.3,15.5"/>
        <path class="cls-2" d="M505,177.5h-13.5l-3.3,10.7h-6.2l13.5-40.7h5.5l13.5,40.7h-6.2l-3.3-10.7ZM493.2,172.2h10.2l-4.4-14.4-.5-2.7h-.3l-.5,2.7-4.5,14.4Z"/>
        <polygon class="cls-2" points="566.3 147.5 572 147.5 572 182.7 587.1 182.7 587.1 188.2 566.3 188.2 566.3 147.5"/>
        <path class="cls-1" d="M180.9,94.4c-.5-1.6-1.2-2.9-2.1-4-.9-1-2-1.8-3.2-2.3-1.2-.5-2.5-.8-3.9-.8-3.6,0-7,1-10.1,3-3.1,2-6.1,4.8-9,8.2-2.8,3.4-5.6,7.4-8.2,12-2.6,4.6-5.2,9.4-7.8,14.5-2.6,5.1-5.2,10.3-7.8,15.6-2.6,5.3-5.3,10.4-8.1,15.4-1.8.3-3.5.5-5.3.7-1.8.1-3.6.2-5.4.2-4.5,0-8.8-.6-12.9-1.9-4.1-1.3-7.7-3.2-10.8-5.6-3.1-2.5-5.6-5.5-7.4-9.1-1.8-3.6-2.8-7.6-2.8-12.2s.7-7.9,2-11.5c1.4-3.6,3.3-6.7,5.8-9.4,2.5-2.7,5.6-4.8,9.3-6.3.9-.4,1.8-.7,2.8-1-.6,2.3-1.1,4.4-1.5,6.4-1.1,5.7-1.6,10.4-1.6,14s.4,6.5,1.1,9.3c.7,2.8,1.8,5.2,3.3,7.1,1.5,2,3.3,3.5,5.6,4.6,2.3,1.1,5,1.6,8.1,1.6s5.8-.7,8.4-2.2c2.6-1.5,4.8-3.5,6.7-5.9,1.9-2.4,3.3-5.2,4.4-8.3,1.1-3.1,1.6-6.3,1.6-9.6s-.3-5.5-.9-7.7c-.6-2.1-1.4-3.9-2.4-5.4-1-1.4-2-2.6-3.2-3.4,0,0-.3-.3-.8-.5-1-.6-1.9-1.2-2.9-1.6-1.2-.5-2.2-.8-3.2-1-.2,0-.4,0-.5-.1-1.6-.5-3.3-.9-5.3-1.3-2.5-.5-5.2-.8-8.3-.8,1.4-3.9,3-8.3,5-13.1,4.9-2.7,9.7-5.7,14.4-9.2,4.8-3.4,9.6-7.4,14.4-12,3.2-3.1,5.8-6.2,7.7-9.5,1.9-3.3,2.8-6.4,2.8-9.3s-.6-4.5-1.9-5.9c-1.3-1.4-3.1-2.1-5.4-2.1s-4.4.7-7.1,2.1c-2.7,1.4-5.8,3.9-9.1,7.4-3.3,3.6-7,8.5-10.9,14.7-3.9,6.2-8,14.1-12.4,23.8-4.3,2.1-8.7,4-12.9,5.6-4.3,1.6-8.6,3.2-13,4.6,1.4-2.4,2.7-5.2,4-8.3,1.3-3.1,2.4-6.3,3.5-9.6,1-3.3,1.8-6.6,2.5-10,.6-3.3.9-6.5.9-9.4s-.5-6.5-1.4-9.2c-1-2.6-2.3-4.8-4-6.6-1.7-1.8-3.8-3.1-6.1-4-2.4-.9-5-1.3-7.8-1.3s-6.4.4-9.9,1.3c-3.5.9-6.9,2.2-10.3,3.8-3.4,1.6-6.6,3.6-9.7,5.9-3.1,2.3-5.8,4.8-8.1,7.6-2.3,2.8-4.2,5.8-5.6,8.9-1.4,3.2-2.1,6.5-2.1,9.9s.5,5.6,1.4,7.7c.9,2.1,2.2,3.8,3.8,5.2,1.6,1.3,3.4,2.3,5.6,2.9,2.1.6,4.4.9,6.8.9s4.5-.2,6.4-.5c2-.3,3.7-.7,5.2-1.2,1.5-.4,2.7-.9,3.6-1.2.9-.4,1.5-.6,1.7-.8l-1.3-3.2c-1.4.7-2.6,1.2-3.7,1.5-1.1.4-2.4.7-3.9,1-1.5.3-3,.5-4.6.5s-2.9-.2-4.6-.6c-1.6-.4-3.1-1-4.6-2-1.4-1-2.6-2.2-3.5-3.9-.9-1.6-1.4-3.7-1.4-6.2s.4-5.1,1.4-7.7c.9-2.6,2.2-5.2,3.8-7.8,1.7-2.5,3.7-4.9,6-7.2,2.3-2.3,4.9-4.3,7.8-5.9,2.9-1.7,6-3,9.4-4,3.3-1,6.9-1.5,10.5-1.5s3.8.4,5.4,1.1c1.6.7,3,1.7,4.1,3,1.1,1.3,2,2.8,2.6,4.6.6,1.8.9,3.7.9,5.9s-.3,5.9-1,9.3c-.7,3.4-1.6,7-2.8,10.7-1.2,3.7-2.6,7.6-4.2,11.5-1.6,3.9-3.4,7.8-5.3,11.7-3.6,1.2-7.2,2.4-10.8,3.7-3.6,1.2-7.2,2.6-10.9,4-3.7,1.4-7.4,3-11.1,4.8-3.7,1.7-7.5,3.7-11.2,5.9-2.4,1.4-4.5,3-6.3,4.6-1.8,1.6-3.3,3.3-4.5,5-1.2,1.7-2,3.4-2.6,5-.6,1.6-.9,3.1-.9,4.4s.2,2.2.5,3.5c.3,1.3.9,2.5,1.7,3.6.8,1.1,2,2,3.4,2.8,1.4.8,3.3,1.1,5.6,1.1s5.4-.6,8.4-1.7c3-1.2,6.1-2.8,9.3-4.9,3.2-2.1,6.4-4.6,9.6-7.4,3.2-2.9,6.4-6,9.5-9.5,3.1-3.4,6-7.1,8.8-11,2.8-3.9,5.4-7.9,7.7-11.9,4.4-1.5,8.8-3,13.2-4.7,4.4-1.7,8.9-3.6,13.4-5.6-1.2,3.1-2.3,6.1-3.1,8.9-2.2.4-4.4.9-6.5,1.7-4.3,1.5-8,3.7-11.1,6.5-3.2,2.8-5.6,6.3-7.4,10.5-1.8,4.1-2.7,8.9-2.7,14.2s.9,8.8,2.6,12.7c1.7,3.9,4.3,7.4,7.6,10.3,3.3,2.9,7.4,5.2,12.2,6.9,4.8,1.7,10.3,2.5,16.4,2.5s3.3,0,5-.2c1.6-.1,3.3-.3,4.9-.5-2.1,3.5-4.3,6.8-6.5,9.9-2.2,3.1-4.6,5.8-7,8.3-2.5-.6-5.1-1.1-7.5-1.5-2.5-.4-4.9-.6-7.3-.6-5.6,0-9.7.8-12.5,2.3-2.7,1.5-4.1,3.7-4.1,6.5s.8,3.9,2.5,5.1c1.7,1.3,4.1,1.9,7.3,1.9s7.3-.6,10.6-1.8c3.4-1.2,6.6-2.9,9.7-5,2.6.9,5.2,1.9,7.9,2.9,2.7,1,5.3,1.9,8,2.7,2.7.8,5.3,1.5,7.9,2,2.6.5,5.2.8,7.7.8s4.7-.2,6.7-.7c2-.5,3.8-1.1,5.4-1.8,1.6-.7,3-1.5,4.1-2.3,1.2-.8,2.2-1.6,2.9-2.3.8-.7,1.4-1.4,1.8-1.9.4-.5.6-.8.6-.8l-2.4-2.1c-2.3,2.5-4.6,4.2-7,5.2-2.3,1-4.7,1.5-7.3,1.5s-3.6-.3-5.8-.8c-2.2-.6-4.6-1.2-7.1-2.1-2.6-.8-5.3-1.7-8.1-2.7-2.9-1-5.8-1.9-8.8-2.8,3.1-2.9,6-6.1,8.7-9.7,2.7-3.6,5.4-7.4,8-11.5,5.5-1.4,10.7-3.3,15.5-5.8,4.9-2.5,9.3-5.3,13.4-8.5,4.1-3.2,7.7-6.6,10.9-10.3,3.2-3.7,5.9-7.5,8.2-11.4,2.2-3.9,3.9-7.7,5.1-11.6,1.2-3.9,1.8-7.5,1.8-11s-.3-4-.8-5.6M116.4,67c1.6-3.2,3.2-6.3,4.9-9.2,1.7-2.9,3.4-5.6,5.1-8.2,1.7-2.5,3.5-4.7,5.3-6.5,1.8-1.8,3.5-3.3,5.2-4.3,1.7-1,3.4-1.6,5-1.6s2.6.4,3.3,1.3c.7.9,1,2,1,3.3s-.2,1.9-.5,3.1c-.3,1.2-.9,2.5-1.6,3.8-.7,1.4-1.7,2.9-2.9,4.4-1.2,1.6-2.7,3.1-4.4,4.7-4.2,4-8.4,7.5-12.5,10.5-4.1,3.1-8.2,5.8-12.3,8.2,1.4-3.2,2.9-6.4,4.5-9.6M55.2,115.3c-3.5,4.7-7.1,8.8-10.8,12.3-3.7,3.5-7.3,6.2-10.9,8.1-3.6,2-7,2.9-10.2,2.9s-3.3-.4-4.5-1.3c-1.2-.9-1.7-2.2-1.7-3.9,0-2.5.7-5,2.2-7.3,1.5-2.3,3.5-4.6,5.9-6.6,2.4-2.1,5.2-4.1,8.4-5.9,3.2-1.8,6.4-3.6,9.7-5.1,3.3-1.6,6.5-2.9,9.7-4.2,3.2-1.2,6-2.3,8.5-3.1l3.6-1.2c-3.1,5.5-6.4,10.6-9.9,15.4M99,117.2c.4-2.7.9-5.7,1.8-9.2.7-2.9,1.6-6,2.7-9.5.7,0,1.4,0,2.1,0,2.6,0,5.1.2,7.3.7,1.3.3,2.4.6,3.5.9,0,0,.3.2.7.2.6.2,1.2.4,1.7.5,6.6,2,8.4,6,9.3,9.2.5,1.9.9,4.1.9,6.8s-.5,6-1.4,8.8c-1,2.7-2.3,5.1-3.9,7.2-1.6,2-3.6,3.7-5.7,4.8-2.2,1.2-4.5,1.8-6.9,1.8s-3.5-.3-5.1-.9c-1.5-.6-2.8-1.5-4-2.8-1.1-1.2-2-2.8-2.6-4.7-.6-1.9-.9-4.1-.9-6.7s.2-4.4.5-7.1M91,187.1c-2.6.9-5.3,1.4-8.2,1.4s-2.4-.1-3.2-.4c-.8-.2-1.5-.5-1.9-.9-.5-.4-.8-.7-1-1.2-.2-.4-.3-.8-.3-1.2,0-1.2.6-2.2,1.8-3.1,1.2-.9,3.2-1.3,5.8-1.3s4.6.3,7,.8c2.4.5,4.9,1.2,7.5,2.1-2.4,1.6-4.9,2.9-7.5,3.8M176.9,109.9c-1.1,3.5-2.7,6.9-4.7,10.5-2.1,3.5-4.5,7-7.5,10.3-2.9,3.4-6.2,6.5-9.8,9.5-3.6,2.9-7.6,5.6-11.8,8-4.2,2.4-8.7,4.3-13.4,5.7,2.8-4.8,5.5-9.6,8.1-14.6,2.6-4.9,5.1-9.7,7.5-14.4,2.4-4.7,4.7-9,7-13.2,2.3-4.1,4.5-7.7,6.7-10.8,2.2-3.1,4.4-5.5,6.5-7.2,2.2-1.8,4.3-2.7,6.5-2.7s1.8.2,2.6.5c.8.3,1.5.8,2.1,1.5.6.7,1.1,1.6,1.4,2.8.4,1.1.5,2.5.5,4.2,0,3.2-.5,6.5-1.6,9.9"/>
        <polygon class="cls-2" points="148.7 0 0 0 0 192.6 2.8 192.6 2.8 3.2 148.7 3.2 148.7 0"/>
        <polygon class="cls-2" points="193 33.8 193 219.5 72.7 219.5 72.7 222.8 195.8 222.8 195.8 33.8 193 33.8"/>
      </g>
    </g>
  </g>
</svg>