<?xml version="1.0" encoding="UTF-8"?>
<svg xmlns="http://www.w3.org/2000/svg" version="1.1" viewBox="0 0 164.6 79.3">
  <defs>
    <style>
      .cls-1 {
        fill: #604b3d;
      }

      .cls-2 {
        fill: #ab363a;
      }

      .cls-3 {
        fill: #fff;
      }
    </style>
  </defs>
  <!-- Generator: Adobe Illustrator 28.6.0, SVG Export Plug-In . SVG Version: 1.2.0 Build 709)  -->
  <g>
    <g id="Layer_1">
      <g>
        <path class="cls-1" d="M30.1,76.2c-.1-.2-.3-.3-.4-.3-.2,0-.3-.1-.5-.1s-.4,0-.6.1c-.2,0-.3.2-.5.3-.1.1-.2.3-.3.5,0,.2-.1.4-.1.6s0,.4.1.6c0,.2.2.4.3.5.1.1.3.3.5.3.2,0,.4.1.6.1s.4,0,.6-.1c.2,0,.3-.2.5-.4l.3.3c-.2.2-.4.4-.6.5-.2.1-.5.2-.8.2s-.5,0-.8-.2c-.2-.1-.4-.2-.6-.4-.2-.2-.3-.4-.4-.6,0-.2-.1-.5-.1-.8s0-.5.1-.8c0-.2.2-.5.4-.6.2-.2.4-.3.6-.4.2-.1.5-.2.8-.2s.5,0,.7.1c.2,0,.4.2.6.5l-.4.3Z"/>
        <path class="cls-1" d="M34.6,79.3c-.3,0-.6,0-.8-.2-.2-.1-.5-.2-.6-.4-.2-.2-.3-.4-.4-.6,0-.2-.1-.5-.1-.8s0-.6.1-.8c0-.2.2-.5.4-.6.2-.2.4-.3.6-.4.2,0,.5-.1.8-.1s.6,0,.8.1c.2,0,.4.2.6.4.2.2.3.4.4.6,0,.2.1.5.1.8s0,.6-.1.8c0,.2-.2.5-.4.6-.2.2-.4.3-.6.4-.2,0-.5.2-.8.2ZM34.6,78.9c.2,0,.4,0,.6-.1.2,0,.3-.2.5-.3.1-.1.2-.3.3-.5,0-.2.1-.4.1-.6s0-.4-.1-.6c0-.2-.2-.4-.3-.5-.1-.1-.3-.3-.5-.3-.2,0-.4-.1-.6-.1s-.4,0-.6.1c-.2,0-.3.2-.5.3-.1.1-.2.3-.3.5,0,.2-.1.4-.1.6s0,.4.1.6c0,.2.2.4.3.5.1.1.3.3.5.3.2,0,.4.1.6.1Z"/>
        <path class="cls-1" d="M38.9,75.4h.6l2.2,3.2h0v-3.2h.5v3.8h-.6l-2.2-3.2h0v3.2h-.4v-3.8Z"/>
        <path class="cls-1" d="M46.5,76.1c0-.1-.2-.2-.3-.3-.1,0-.3,0-.4,0s-.2,0-.3,0-.2,0-.3.1c0,0-.1.1-.2.2,0,0,0,.2,0,.3s0,.2,0,.2c0,0,0,.1.1.2,0,0,.1.1.2.1.1,0,.2,0,.4.1.1,0,.3,0,.4.2.1,0,.3.1.4.2.1,0,.2.2.3.3,0,.1,0,.3,0,.5s0,.4-.1.5c0,.1-.2.3-.3.3-.1,0-.3.2-.4.2-.2,0-.3,0-.5,0s-.2,0-.3,0c-.1,0-.2,0-.3,0-.1,0-.2,0-.3-.2,0,0-.2-.1-.2-.2l.4-.3c0,.1.2.2.3.3.1,0,.3.1.5.1s.2,0,.3,0c0,0,.2,0,.3-.1,0,0,.1-.1.2-.2,0,0,0-.2,0-.3s0-.2,0-.3c0,0-.1-.1-.2-.2,0,0-.2-.1-.3-.1-.1,0-.3,0-.4-.2-.1,0-.3,0-.4-.1-.1,0-.2-.1-.3-.2,0,0-.2-.2-.2-.3,0-.1,0-.2,0-.4s0-.3.1-.5c0-.1.2-.2.3-.3.1,0,.3-.2.4-.2.2,0,.3,0,.5,0s.4,0,.6,0c.2,0,.3.2.5.3l-.4.3Z"/>
        <path class="cls-1" d="M52.1,77.8c0,.2,0,.4,0,.6,0,.2-.1.3-.2.5-.1.1-.3.3-.4.3-.2,0-.4.1-.7.1s-.5,0-.7-.1c-.2,0-.3-.2-.4-.3-.1-.1-.2-.3-.2-.5,0-.2,0-.4,0-.6v-2.3h.4v2.3c0,.2,0,.3,0,.4,0,.1,0,.3.2.4,0,.1.2.2.3.3.1,0,.3,0,.5,0s.3,0,.5,0c.1,0,.2-.2.3-.3,0-.1.1-.2.2-.4,0-.1,0-.3,0-.4v-2.3h.5v2.3Z"/>
        <path class="cls-1" d="M54.6,75.4h.4v3.4h1.7v.4h-2.2v-3.8Z"/>
        <path class="cls-1" d="M61,75.8h-1.3v3.4h-.5v-3.4h-1.3v-.4h3v.4Z"/>
        <path class="cls-1" d="M63.9,75.4h.4l1.6,3.8h-.5l-.4-.9h-1.9l-.4.9h-.5l1.7-3.8ZM64.1,76h0l-.8,1.9h1.5l-.8-1.9Z"/>
        <path class="cls-1" d="M68,75.4h.6l2.2,3.2h0v-3.2h.5v3.8h-.6l-2.2-3.2h0v3.2h-.5v-3.8Z"/>
        <path class="cls-1" d="M76.4,76.2c-.1-.2-.3-.3-.4-.3-.2,0-.3-.1-.5-.1s-.4,0-.6.1c-.2,0-.3.2-.5.3-.1.1-.2.3-.3.5,0,.2-.1.4-.1.6s0,.4.1.6c0,.2.2.4.3.5.1.1.3.3.5.3.2,0,.4.1.6.1s.4,0,.6-.1c.2,0,.3-.2.5-.4l.3.3c-.2.2-.4.4-.6.5-.2.1-.5.2-.8.2s-.5,0-.8-.2c-.2-.1-.4-.2-.6-.4-.2-.2-.3-.4-.4-.6,0-.2-.1-.5-.1-.8s0-.5.1-.8c0-.2.2-.5.4-.6.2-.2.4-.3.6-.4.2-.1.5-.2.8-.2s.5,0,.7.1c.2,0,.4.2.6.5l-.4.3Z"/>
        <path class="cls-1" d="M80.1,77.6l-1.4-2.2h.6l1.1,1.7,1.1-1.7h.5l-1.4,2.2v1.6h-.4v-1.6Z"/>
        <path class="cls-1" d="M89.2,78.7c-.2.2-.3.3-.5.5-.2.1-.4.2-.6.2s-.3,0-.5,0c-.1,0-.3-.1-.4-.2-.1,0-.2-.2-.3-.3,0-.1,0-.3,0-.5s0-.3,0-.4.1-.2.2-.3c0,0,.2-.2.3-.2.1,0,.2-.1.3-.2-.1-.1-.2-.3-.3-.4,0-.1-.1-.3-.1-.5s0-.3,0-.4c0-.1.1-.2.2-.3,0,0,.2-.1.3-.2.1,0,.2,0,.4,0s.2,0,.4,0c.1,0,.2,0,.3.2,0,0,.2.2.2.3,0,.1,0,.2,0,.4s0,.2,0,.3c0,0-.1.2-.2.3,0,0-.2.1-.3.2,0,0-.2.1-.3.2l.8.9.5-.9h.5l-.7,1.2.9.9h-.6l-.5-.5ZM88,77.4c0,0-.2,0-.2.1,0,0-.1.1-.2.2,0,0-.1.1-.2.2,0,0,0,.2,0,.3s0,.2,0,.3c0,0,0,.2.2.2,0,0,.1.1.2.2,0,0,.2,0,.3,0s.2,0,.3,0c0,0,.2,0,.2-.1,0,0,.1-.1.2-.2,0,0,.1-.1.2-.2l-.9-1ZM88.1,76.9c0,0,.1,0,.2-.1,0,0,.1,0,.2-.1,0,0,.1-.1.2-.2,0,0,0-.2,0-.2,0-.1,0-.2-.1-.3,0,0-.2-.1-.3-.1s-.3,0-.4.1c-.1,0-.2.2-.2.4s0,.2,0,.3c0,0,.1.2.2.2h.1Z"/>
        <path class="cls-1" d="M95.6,75.4h.7l1.3,3h0l1.3-3h.7v3.8h-.5v-3.2h0l-1.4,3.2h-.3l-1.4-3.2h0v3.2h-.4v-3.8Z"/>
        <path class="cls-1" d="M102.1,75.4h2.4v.4h-1.9v1.2h1.8v.4h-1.8v1.4h2v.4h-2.5v-3.8Z"/>
        <path class="cls-1" d="M106.8,75.4h1.5c.1,0,.3,0,.4,0,.1,0,.3,0,.4.1.1,0,.3.1.4.2.1,0,.2.2.3.4,0,.1.2.3.2.5,0,.2,0,.4,0,.6s0,.4,0,.6c0,.2-.1.3-.2.5,0,.1-.2.3-.3.4s-.3.2-.4.2c-.1,0-.3.1-.4.1-.1,0-.3,0-.4,0h-1.5v-3.8ZM107.3,78.8h.9c.2,0,.4,0,.6,0,.2,0,.3-.1.5-.3.1-.1.2-.3.3-.5,0-.2.1-.4.1-.7s0-.5-.1-.7c0-.2-.2-.3-.3-.5-.1-.1-.3-.2-.5-.3-.2,0-.4,0-.6,0h-.9v3Z"/>
        <path class="cls-1" d="M112.5,75.4h.4v3.8h-.4v-3.8Z"/>
        <path class="cls-1" d="M116.7,75.4h.4l1.6,3.8h-.5l-.4-.9h-1.9l-.4.9h-.5l1.7-3.8ZM116.9,76h0l-.8,1.9h1.5l-.8-1.9Z"/>
        <path class="cls-1" d="M122.9,75.8h-1.3v3.4h-.5v-3.4h-1.3v-.4h3v.4Z"/>
        <path class="cls-1" d="M125,75.4h.5v3.8h-.5v-3.8Z"/>
        <path class="cls-1" d="M129.8,79.3c-.3,0-.6,0-.8-.2-.2-.1-.5-.2-.6-.4-.2-.2-.3-.4-.4-.6,0-.2-.1-.5-.1-.8s0-.6.1-.8c0-.2.2-.5.4-.6.2-.2.4-.3.6-.4.2,0,.5-.1.8-.1s.6,0,.8.1.5.2.6.4c.2.2.3.4.4.6,0,.2.1.5.1.8s0,.6-.1.8c0,.2-.2.5-.4.6-.2.2-.4.3-.6.4-.2,0-.5.2-.8.2ZM129.8,78.9c.2,0,.4,0,.6-.1.2,0,.3-.2.5-.3.1-.1.2-.3.3-.5,0-.2.1-.4.1-.6s0-.4-.1-.6c0-.2-.2-.4-.3-.5-.1-.1-.3-.3-.5-.3-.2,0-.4-.1-.6-.1s-.4,0-.6.1c-.2,0-.3.2-.5.3-.1.1-.2.3-.3.5,0,.2-.1.4-.1.6s0,.4.1.6c0,.2.2.4.3.5.1.1.3.3.5.3.2,0,.4.1.6.1Z"/>
        <path class="cls-1" d="M134.1,75.4h.6l2.2,3.2h0v-3.2h.5v3.8h-.6l-2.2-3.2h0v3.2h-.4v-3.8Z"/>
      </g>
      <rect class="cls-1" x="58.8" y="3.1" width="47" height="47"/>
      <g>
        <path class="cls-3" d="M95.8,28.1v.4h-8v-.4c1.3,0,2.2-.7,2.2-3.2V7.8l-7.5,21h-.4l-8.7-19v11c0,3.6.5,7.3,4,7.3v.4h-8.8v-.4c3.9,0,4.4-3.8,4.4-7.3v-11.7c-1.2-2-2.7-2-3.5-2.1v-.4h6.2l8.1,17.6,6.2-17.6h5.5v.4c-1.3,0-2.4.6-2.4,2.7v15.1c0,2.5,1.3,3.2,2.6,3.2Z"/>
        <path class="cls-3" d="M94.3,46.5h-7.1v-.4c1.7,0,1.4-1.8.7-3.5l-1.1-2.7h-8.1c-.8,2.5-2.2,6.3,2.1,6.2v.4h-6.9v-.4c1.2,0,2-.2,4.7-7.3l5.2-14.1h.3c3.8,9.1,7.6,19,7.6,19,1,2.5,1.7,2.5,2.5,2.5v.4ZM86.6,39.5l-4.1-10.3-3.8,10.3h7.8Z"/>
      </g>
      <g>
        <path class="cls-1" d="M12.2,68.4v.2h-3.8v-.2c.5,0,.9-.5.9-1.3v-6.8l-3.4,8.4h-.2l-3.5-7.6v4.3s0,3,1.7,3v.2H0v-.2c1.9,0,1.9-3,1.9-3v-4.6c-.5-.8-1.1-.8-1.4-.9v-.2h3.2l3.1,6.4,2.5-6.4h2.8v.2c-.5,0-1,.3-1,1.1v6.1c0,.9.5,1.3,1.1,1.3Z"/>
        <path class="cls-1" d="M20.5,65.9v2.8h-7.1v-.2c.5,0,.7-.7.7-1.5v-5.4c0-.8-.2-1.5-.7-1.5v-.2h7v2.4h-.2c-.3-2.2-3.7-2.2-3.7-2.2h-.5v4.1h.5s1.9,0,2.1-1.3h.2v2.8h-.2c-.1-1.3-2.1-1.3-2.1-1.3h-.5v4.2h.5s3.4,0,3.9-2.5h.2Z"/>
        <path class="cls-1" d="M31.1,65.1v.2c-.7,0-.9.2-.9,2.9-.8.3-2,.5-3.3.5-2.7,0-4.4-2.1-4.4-4.6s1.7-4.6,4.4-4.6,2.4.2,3.2.7v2.2h-.5c-.4-2-1.2-2.6-2.7-2.6s-2.1.9-2.1,4.4.7,4.4,2.1,4.4,1.7-.2,1.7-1.4-.4-1.8-1.1-1.8v-.2h3.6Z"/>
        <path class="cls-1" d="M40.8,68.4v.2h-3.6v-.2c1,0,.3-1.4.3-1.4l-.4-.9h-3s-.8,2.4,1.2,2.3v.2h-3.1v-.2c.3,0,.6,0,1.9-2.9l2.2-5.8h.2c3.1,7.5,3.2,7.8,3.2,7.8.4,1,.7.9,1.1.9ZM37,65.9l-1.5-3.7-1.4,3.7h2.9Z"/>
        <path class="cls-1" d="M49.1,66l.2,2c-.9.6-1.9.8-3.3.8-2.7,0-4.4-2.1-4.4-4.6s1.7-4.6,4.4-4.6,2.5.1,3.3.8l-.2,2h-.2c-.7-1.7-1.4-2.5-2.9-2.5s-2.1.9-2.1,4.4.7,4.4,2.1,4.4,2.6-1.2,2.9-2.6h.2Z"/>
        <path class="cls-1" d="M59.7,64.2c0,2.5-1.6,4.5-4.4,4.5s-4.4-2-4.4-4.5,1.6-4.6,4.4-4.6,4.4,2.1,4.4,4.6ZM57.5,64.2c0-3.5-.7-4.4-2.2-4.4s-2.2,1-2.2,4.4.7,4.3,2.2,4.3,2.2-.8,2.2-4.3Z"/>
        <path class="cls-1" d="M70,68.4v.2h-1.2c-2.3,0-1.9,0-2.8-2.8-.4-1.3-1.6-1.3-1.6-1.3h-.6v2.5c0,.9.4,1.3.9,1.3v.2h-3.7v-.2c.5,0,.9-.5.9-1.3v-6c0-.8-.4-1.1-.9-1.1v-.2h3.1c2.5,0,4.3.3,4.3,2.4s-1,2.1-2.5,2.3c.8,0,1.8.5,2.5,2.7.3,1,1.2,1.2,1.5,1.2ZM66.5,62.1c0-2.2-1-2.2-2.2-2.2h-.4v4.4h.4c1.2,0,2.2,0,2.2-2.2Z"/>
        <path class="cls-1" d="M73.8,64.8v2.1c0,1.4,1,1.5,1.5,1.5v.2h-4.2v-.2c.5,0,.8-.7.8-1.5v-5.5c0-.8-.4-1.5-.9-1.5v-.2h3.2c2.5,0,4.3.4,4.3,2.6s-1.8,2.6-4.3,2.6h-.5ZM73.8,64.6h.5c1.2,0,2.2-.1,2.2-2.3s-1-2.3-2.2-2.3h-.5v4.7Z"/>
        <path class="cls-1" d="M91.3,68.6h-2.9v-.2c.7,0,.6-.7.3-1.4l-.4-1.1h-3.3c-.3,1-.9,2.6.9,2.5v.2h-2.8v-.2c.5,0,.8,0,1.9-3l2.1-5.8h.1c1.5,3.7,3.1,7.7,3.1,7.7.4,1,.7,1,1,1v.2ZM88.2,65.8l-1.7-4.2-1.5,4.2h3.2Z"/>
        <path class="cls-1" d="M95.4,68.6h-2.7v-.2c.5,0,.9-.5.9-1.3v-5.9c0-.8-.3-1.3-.9-1.3v-.2h2.7c2.5,0,5,.8,5,4.5s-2.5,4.4-5,4.4ZM95.4,59.9h-.6v8.6h.6c1.4,0,3.5,0,3.5-4.3s-2.1-4.3-3.5-4.3Z"/>
        <path class="cls-1" d="M110,59.7v.2c-.8,0-1.2,0-2.3,3l-2.2,5.7h-.2c-1.6-3.7-3.1-7.8-3.1-7.8-.4-.9-.8-.9-1.2-.9v-.2h3.4v.2c-1.1,0-.8,1-.8,1.1l2.3,6,1.6-4.2c.4-1.2,1.1-3-.7-3v-.2h3.1Z"/>
        <path class="cls-1" d="M114.7,68.7c-2.8,0-4.1-2-4.1-4.5s1.3-4.6,4.1-4.6,4.1,2.1,4.1,4.6-1.3,4.5-4.1,4.5ZM114.7,59.8c-1.5,0-2.7,1-2.7,4.5s1.2,4.3,2.7,4.3,2.6-.9,2.6-4.3-1.2-4.5-2.6-4.5Z"/>
        <path class="cls-1" d="M127.8,66l.2,2c-.9.6-1.7.8-3.1.8-2.6,0-4.4-1.7-4.4-4.6s1.8-4.6,4.4-4.6,2.3.1,3.1.8l-.2,2h-.2c-.4-2.1-1.7-2.6-2.7-2.6s-2.8.6-2.8,4.4,1.5,4.4,2.8,4.4,2.6-.6,2.7-2.6h.2Z"/>
        <path class="cls-1" d="M137.4,68.6h-2.9v-.2c.7,0,.6-.7.3-1.4l-.4-1.1h-3.3c-.3,1-.9,2.6.9,2.5v.2h-2.8v-.2c.5,0,.8,0,1.9-3l2.1-5.8h.1c1.5,3.7,3.1,7.7,3.1,7.7.4,1,.7,1,1,1v.2ZM134.3,65.8l-1.7-4.2-1.5,4.2h3.2Z"/>
        <path class="cls-1" d="M145.6,59.7v2.2h-.2c0-2-2.2-2.1-2.3-2.1h-.7v7.5c0,.8.4,1.1.9,1.1v.2h-3.1v-.2c.5,0,.9-.2.9-1.1v-7.5h-.7c-.4,0-2.3,0-2.3,2.1h-.2v-2.2h7.8Z"/>
        <path class="cls-1" d="M153.2,66v2.6h-6.4v-.2c.5,0,.7-.5.7-1.3v-6.1c0-.8-.1-1.2-.7-1.2v-.2h6.2v2.3h-.2c-.2-2.1-2.3-2.1-3.4-2.1h-.7v4.2h.8c.3,0,1.7,0,1.7-1.3h.2v2.7h-.2c0-1.3-1.4-1.3-1.7-1.3h-.8v4.3h.6c1.1,0,3.4,0,3.6-2.5h.2Z"/>
        <path class="cls-1" d="M164.6,59.7v.2c-1.8,0-1.8,1.8-1.8,3v5.8h-.4l-5.4-6.9v3.8c0,1.1,0,3,1.7,3v.2h-3.7v-.2c1.8,0,1.8-1.9,1.8-3v-4l-.5-.7c-.8-1-1.2-.9-1.5-1v-.2h2.3l5.5,7.1v-3.9c0-1.2,0-3-1.7-3v-.2h3.6Z"/>
      </g>
      <path class="cls-2" d="M108.8,53.1h-53.1V0h53.1v53.1ZM56.6,52.2h51.3V.9h-51.3v51.3Z"/>
    </g>
  </g>
</svg>