<?xml version="1.0" encoding="UTF-8"?>
<svg xmlns="http://www.w3.org/2000/svg" version="1.1" viewBox="0 0 235.4 88.7">
  <!-- Generator: Adobe Illustrator 28.6.0, SVG Export Plug-In . SVG Version: 1.2.0 Build 709)  -->
  <g>
    <g id="Layer_1">
      <path d="M97.6,78.2h-3.7v9.6h1.4v-2.9h2.4c2.5,0,4-1.3,4-3.3,0-2.1-1.5-3.3-4-3.3ZM97.6,83.7h-2.3v-4.3h2.3c1.8,0,2.7.8,2.7,2.1,0,1.4-.9,2.1-2.7,2.1ZM45.8,78.1c-2.9,0-5.1,2.1-5.1,4.9s2.2,4.9,5.1,4.9,5.1-2.1,5.1-4.9c0-2.8-2.2-4.9-5.1-4.9ZM45.8,86.7c-2.1,0-3.7-1.6-3.7-3.7s1.6-3.7,3.7-3.7,3.7,1.6,3.7,3.7-1.6,3.7-3.7,3.7ZM104.6,79.4h3.3v8.4h1.3v-8.4h3.3v-1.2h-7.9v1.2h0ZM83.4,83.5h4.8v-1.2h-4.8v-2.9h5.4v-1.2h-6.7v9.6h6.9v-1.2h-5.6v-3.1ZM33.4,79.3c1,0,2,.3,2.7,1.1l.9-.9c-.9-1-2.2-1.5-3.6-1.5-2.9,0-5.1,2.1-5.1,4.9s2.2,4.9,5.1,4.9,2.8-.5,3.6-1.5l-.9-.9c-.7.8-1.6,1.2-2.7,1.2-2.2,0-3.8-1.6-3.8-3.7s1.6-3.7,3.8-3.7ZM47.9,5.6c-2.4-1.4-4.9-2.4-7.7-3.1-2.8-.6-5.8-1-9.1-1H.3v.2l5.9,5.6c.5.5.8,1.2.8,2.1v46.6c0,.9-.3,1.6-.8,2.1L.3,63.8v.2h32.1v-.2l-8.3-6.1c-.6-.5-1-1.3-1-2.2v-14.6h5.8c8.2,0,14.6-1.7,19.4-5.1,4.8-3.4,7.1-8.5,7.1-15.3s-.7-6.4-2-8.9c-1.3-2.5-3.2-4.5-5.5-5.9ZM35.6,34.2c-2,3.2-4.8,4.9-8.4,4.9h-4.1V5.1c0-.7,0-1.2.3-1.4s.6-.3,1.3-.3h3.4c3.3,0,5.9,1.6,7.8,4.8,1.9,3.2,2.8,7.4,2.8,12.7s-1,10-3.1,13.3ZM73.8,79.3c1.1,0,1.9.3,2.7,1.1l.9-.9c-.9-1-2.2-1.5-3.6-1.5-2.9,0-5.1,2.1-5.1,4.9s2.2,4.9,5.1,4.9,2.8-.5,3.6-1.5l-.9-.9c-.7.8-1.6,1.2-2.7,1.2-2.2,0-3.8-1.6-3.8-3.7,0-2.1,1.6-3.7,3.7-3.7ZM62.5,85.3l-5.7-7.1h-1.1v9.6h1.4v-7.1l5.7,7.1h1.1v-9.6h-1.4v7.1h0ZM168.1,80.8c0-.8.7-1.5,2.3-1.5s1.8.2,2.6.8l.4-1.1c-.8-.6-1.9-.8-3.1-.8-2.5,0-3.7,1.3-3.7,2.7,0,3.6,5.8,2.1,5.8,4.4s-.7,1.5-2.4,1.5-2.4-.5-3.1-1.1l-.5,1.1c.8.7,2.2,1.2,3.7,1.2,2.5,0,3.7-1.2,3.7-2.7,0-3.5-5.8-2-5.8-4.4ZM190,79.3c1.1,0,2,.3,2.8,1.1l.9-.8c-.9-1-2.2-1.5-3.7-1.5-3,0-5.1,2.1-5.1,4.9s2.2,4.9,5.1,4.9,2.7-.4,3.6-1.2v-3.7h-1.3v3.1c-.7.4-1.4.6-2.2.6-2.2,0-3.8-1.6-3.8-3.7,0-2.1,1.6-3.7,3.8-3.7ZM205.7,85.3l-5.7-7.1h-1.1v9.6h1.4v-7.1l5.7,7.1h1.1v-9.6h-1.4v7.1h0ZM227,50.1l-4,6.9-4,6.9h16l-4-6.9-4-6.9ZM214.1,1.6v.2l7.9,11.4c.5.8.8,1.3.9,1.6s0,.8-.2,1.6l-11.7,37.7-14-44.1c-.3-.8-.2-1.6.3-2.3l4.3-5.9v-.2h-26.4v.2l3.7,5.9c.8,1.1,1.4,2.3,1.8,3.6l16.9,52.6h12.4l14.6-47.1c.4-1.3,1.1-2.6,2-3.8l8.4-11.3v-.2h-20.9ZM111.9,56.5l-8.1-19.2-11.4-3.4v-.2c6.2-.5,10.9-2.1,14.3-4.9s5.1-6.6,5.1-11.3-1.9-9.5-5.8-12.1c-3.9-2.6-8.8-3.9-14.8-3.9h-34.2v.2l5.9,5.6c.5.5.8,1.2.8,2.1v46.6c0,.9-.3,1.6-.8,2.1l-5.9,5.6v.2h29.6v-.2l-5.9-5.5c-.6-.5-.9-1.2-.9-2.1v-21.3h4.6c.9,0,1.6.3,1.9,1.1l11,28h20.8v-.2l-3.8-3.9c-1.2-1.2-2-2.3-2.4-3.4ZM84.4,33.1h-4.6V5.1c0-.7,0-1.2.3-1.4s.6-.3,1.3-.3h3.4c6.6,0,9.9,5.1,9.9,15.2,0,9.7-3.4,14.5-10.3,14.5ZM178.6,87.8h1.4v-9.6h-1.4v9.6h0ZM130.4,83.6l-1.1-.3c-.1.7-.3,1.2-.6,1.7l-2.4-2.3c1.5-.8,2-1.5,2-2.5s-.9-2-2.4-2-2.6.9-2.6,2.1.3,1.3,1.2,2.2c-1.7.9-2.3,1.8-2.3,2.9s1.4,2.5,3.3,2.5,2.4-.4,3.2-1.2l1.3,1.3.7-.9-1.3-1.3c.4-.6.7-1.3.8-2.2ZM126.1,79.1c.8,0,1.3.4,1.3,1.1s-.4,1-1.7,1.8c-.8-.8-1-1.2-1-1.6,0-.7.5-1.2,1.4-1.2ZM125.7,86.8c-1.3,0-2.1-.6-2.1-1.5s.4-1.3,1.8-2.1l2.7,2.7c-.6.6-1.4.9-2.3.9ZM145.6,78.2h-4v9.6h4c3.1,0,5.2-1.9,5.2-4.8s-2.1-4.8-5.2-4.8ZM145.5,86.6h-2.6v-7.2h2.6c2.4,0,3.9,1.4,3.9,3.6,0,2.2-1.5,3.6-3.9,3.6ZM156.9,83.5h4.8v-1.2h-4.8v-2.9h5.4v-1.2h-6.7v9.6h6.9v-1.2h-5.6v-3.1h0ZM149.2,36.6l5,5.7c.5.7.8,1.5.8,2.5v15.8c0,.7-.3,1.1-.8,1.4-1.3.5-2.8.8-4.4.8-4.4,0-7.7-2.4-9.8-7.1-2.1-4.7-3.1-12.7-3.1-23.8,0-19.6,4.9-29.5,14.6-29.5h1.5c1.2,0,2.2.5,2.8,1.4l13.8,20.7h.2V2.8c-6.2-1.4-13-2-20.3-2s-17.4,2.9-22.8,8.7c-5.4,5.8-8.1,13.6-8.1,23.4s2.5,17.8,7.4,23.5c4.9,5.7,11.6,8.6,20,8.6s7.8-.8,11.6-2.4l13.5,2.4v-20.1c0-1,.3-1.8.8-2.5l5-5.7v-.2h-27.6v.2h0Z"/>
    </g>
  </g>
</svg>