<?xml version="1.0" encoding="UTF-8"?>
<svg xmlns="http://www.w3.org/2000/svg" version="1.1" viewBox="0 0 575.1 140.3">
  <defs>
    <style>
      .cls-1 {
        fill: #26a9e0;
      }

      .cls-2 {
        fill: #fff;
      }

      .cls-3 {
        fill: #999;
      }
    </style>
  </defs>
  <!-- Generator: Adobe Illustrator 28.6.0, SVG Export Plug-In . SVG Version: 1.2.0 Build 709)  -->
  <g>
    <g id="Layer_1">
      <rect class="cls-1" x=".4" y="1.2" width="150.8" height="138.9"/>
      <path class="cls-2" d="M99.8,117.2h-48.9l-6.8,23.2H0L52.4,0h47l52.4,140.3h-45.1l-7-23.2ZM90.8,86.8l-15.4-50.4-15.2,50.4h30.6Z"/>
      <g>
        <path class="cls-1" d="M162.5,1.2h66.4v17.4h-22.3v53.2h-21.8V18.6h-22.3V1.2Z"/>
        <path class="cls-1" d="M243.9,71.8V1.2h36.4c6.7,0,11.9.6,15.5,1.7,3.6,1.2,6.4,3.3,8.6,6.4s3.3,6.9,3.3,11.4-.8,7.3-2.5,10.1c-1.7,2.8-4,5.1-6.9,6.9-1.9,1.1-4.4,2.1-7.7,2.8,2.6.9,4.5,1.7,5.7,2.6.8.6,2,1.8,3.5,3.7,1.5,1.9,2.5,3.4,3.1,4.4l10.6,20.5h-24.7l-11.7-21.6c-1.5-2.8-2.8-4.6-4-5.4-1.6-1.1-3.4-1.6-5.3-1.6h-1.9v28.7h-21.9ZM265.9,29.8h9.2c1,0,2.9-.3,5.8-1,1.4-.3,2.6-1,3.5-2.2.9-1.2,1.4-2.6,1.4-4.1,0-2.3-.7-4-2.2-5.3-1.4-1.2-4.2-1.8-8.1-1.8h-9.6v14.4Z"/>
        <path class="cls-1" d="M326.2,1.2h21.9v70.6h-21.9V1.2Z"/>
        <path class="cls-1" d="M368.6,1.2h36.3c7.9,0,13.8,1.9,17.8,5.6,3.9,3.8,5.9,9.1,5.9,16s-2.1,12.7-6.4,16.7c-4.3,4-10.8,6-19.6,6h-12v26.2h-21.9V1.2ZM390.5,31.3h5.3c4.2,0,7.2-.7,8.9-2.2,1.7-1.5,2.6-3.3,2.6-5.6s-.7-4.1-2.2-5.6c-1.5-1.5-4.3-2.3-8.3-2.3h-6.2v15.8Z"/>
        <path class="cls-1" d="M444.9,1.2h21.8v53.2h34.1v17.4h-55.9V1.2Z"/>
        <path class="cls-1" d="M515.6,1.2h58.5v15.1h-36.6v11.2h34v14.4h-34v13.9h37.7v16h-59.6V1.2Z"/>
      </g>
      <g>
        <path class="cls-3" d="M182.3,139.4v-45.3h-16.9v-6.1h40.7v6.1h-17v45.3h-6.8Z"/>
        <path class="cls-3" d="M229.8,139.4v-45.3h-16.9v-6.1h40.7v6.1h-17v45.3h-6.8Z"/>
        <path class="cls-3" d="M260.8,114.4c0-8.5,2.3-15.2,6.9-20,4.6-4.8,10.5-7.2,17.7-7.2s9,1.1,12.8,3.4c3.8,2.3,6.7,5.4,8.7,9.5,2,4.1,3,8.7,3,13.8s-1.1,9.9-3.2,14c-2.1,4.1-5.1,7.2-8.9,9.3-3.9,2.1-8,3.2-12.5,3.2s-9.2-1.2-13-3.5c-3.8-2.3-6.7-5.5-8.7-9.6-2-4-2.9-8.3-2.9-12.8ZM267.8,114.5c0,6.2,1.7,11.1,5,14.6,3.3,3.6,7.5,5.3,12.5,5.3s9.3-1.8,12.6-5.4c3.3-3.6,5-8.7,5-15.3s-.7-7.8-2.1-11c-1.4-3.1-3.5-5.5-6.2-7.3-2.7-1.7-5.8-2.6-9.2-2.6-4.8,0-9,1.7-12.4,5-3.5,3.3-5.2,8.8-5.2,16.6Z"/>
        <path class="cls-3" d="M322.4,139.4v-51.4h22.8c4.6,0,8.1.5,10.4,1.4,2.4.9,4.3,2.6,5.7,4.9,1.4,2.3,2.1,4.9,2.1,7.7s-1.2,6.7-3.5,9.2c-2.4,2.5-6,4.1-10.9,4.8,1.8.9,3.2,1.7,4.1,2.6,2,1.8,3.9,4.1,5.6,6.8l8.9,14h-8.6l-6.8-10.7c-2-3.1-3.6-5.4-4.9-7.1-1.3-1.6-2.4-2.8-3.5-3.4-1-.7-2.1-1.1-3.1-1.4-.8-.2-2-.2-3.8-.2h-7.9v22.8h-6.8ZM329.2,110.7h14.6c3.1,0,5.5-.3,7.3-1,1.8-.6,3.1-1.7,4-3.1.9-1.4,1.4-3,1.4-4.6,0-2.4-.9-4.4-2.6-6-1.8-1.6-4.6-2.3-8.4-2.3h-16.3v17Z"/>
        <path class="cls-3" d="M377.6,139.4v-51.4h7l27,40.4v-40.4h6.5v51.4h-7l-27-40.4v40.4h-6.5Z"/>
        <path class="cls-3" d="M433.3,139.4v-51.4h37.2v6.1h-30.4v15.7h28.4v6h-28.4v17.5h31.6v6.1h-38.4Z"/>
        <path class="cls-3" d="M499.1,139.4v-21.8l-19.8-29.6h8.3l10.1,15.5c1.9,2.9,3.6,5.8,5.2,8.7,1.5-2.7,3.4-5.7,5.6-9.1l10-15.1h7.9l-20.5,29.6v21.8h-6.8Z"/>
        <path class="cls-3" d="M533.8,122.9l6.4-.6c.3,2.6,1,4.7,2.1,6.3,1.1,1.6,2.8,3,5.2,4,2.3,1,5,1.5,7.9,1.5s4.9-.4,6.9-1.2c2-.8,3.5-1.8,4.4-3.2,1-1.3,1.5-2.8,1.5-4.4s-.5-3-1.4-4.2c-.9-1.2-2.5-2.2-4.6-3-1.4-.5-4.4-1.4-9.1-2.5-4.7-1.1-8-2.2-9.9-3.2-2.5-1.3-4.3-2.9-5.5-4.8-1.2-1.9-1.8-4-1.8-6.4s.7-5,2.2-7.3c1.5-2.3,3.6-4,6.5-5.1,2.8-1.2,6-1.8,9.4-1.8s7.2.6,10.1,1.8c2.9,1.2,5.1,3,6.7,5.4,1.6,2.4,2.4,5.1,2.5,8.1l-6.5.5c-.4-3.2-1.5-5.7-3.6-7.4-2-1.7-5-2.5-9-2.5s-7.1.8-9,2.3c-1.9,1.5-2.8,3.3-2.8,5.5s.7,3.4,2,4.6c1.3,1.2,4.7,2.4,10.3,3.7,5.5,1.3,9.3,2.3,11.4,3.3,3,1.4,5.2,3.1,6.6,5.2,1.4,2.1,2.1,4.6,2.1,7.3s-.8,5.3-2.3,7.7c-1.6,2.4-3.8,4.3-6.7,5.6-2.9,1.3-6.2,2-9.9,2s-8.5-.7-11.7-2c-3.1-1.4-5.6-3.4-7.4-6.1-1.8-2.7-2.7-5.8-2.8-9.2Z"/>
      </g>
    </g>
  </g>
</svg>