<?xml version="1.0" encoding="UTF-8"?><svg xmlns="http://www.w3.org/2000/svg" viewBox="0 0 585.34 62.4"><defs><style>.d{fill:#00a5e1;}</style></defs><g id="a"/><g id="b"><g id="c"><g><g><path d="M380.79,22.18h-5.77v17.96h2.11v-5.44h3.65c3.84,0,6.17-2.36,6.17-6.26s-2.32-6.26-6.17-6.26Zm-.06,10.29h-3.59v-8.06h3.59c2.7,0,4.12,1.46,4.12,4.03s-1.42,4.03-4.12,4.03Z"/><path d="M281.99,21.97c-5.52,0-9.57,3.93-9.57,9.19s4.05,9.19,9.57,9.19,9.52-3.9,9.52-9.19-4.05-9.19-9.52-9.19Zm0,16.09c-4.03,0-7.01-2.93-7.01-6.9s2.98-6.9,7.01-6.9,6.96,2.92,6.96,6.9-2.98,6.9-6.96,6.9Z"/><polygon points="392.69 24.41 398.85 24.41 398.85 40.14 401.39 40.14 401.39 24.41 407.55 24.41 407.55 22.18 392.69 22.18 392.69 24.41"/><polygon points="352.72 32.11 361.73 32.11 361.73 29.93 352.72 29.93 352.72 24.41 362.83 24.41 362.83 22.18 350.16 22.18 350.16 40.14 363.19 40.14 363.19 37.91 352.72 37.91 352.72 32.11"/><path d="M258.76,24.26c1.98,0,3.67,.67,5.06,2.13l1.67-1.62c-1.64-1.85-4.05-2.8-6.83-2.8-5.47,0-9.52,3.88-9.52,9.19s4.05,9.19,9.5,9.19c2.8,0,5.21-.97,6.85-2.82l-1.67-1.61c-1.39,1.46-3.08,2.15-5.06,2.15-4.05,0-7.06-2.93-7.06-6.9s3.01-6.9,7.06-6.9Z"/><path d="M334.65,24.26c1.98,0,3.67,.67,5.06,2.13l1.67-1.62c-1.64-1.85-4.05-2.8-6.83-2.8-5.47,0-9.52,3.88-9.52,9.19s4.05,9.19,9.5,9.19c2.8,0,5.21-.97,6.85-2.82l-1.67-1.61c-1.39,1.46-3.08,2.15-5.06,2.15-4.05,0-7.06-2.93-7.06-6.9s3.01-6.9,7.06-6.9Z"/><polygon points="313.43 35.57 302.65 22.18 300.54 22.18 300.54 40.14 303.11 40.14 303.11 26.75 313.89 40.14 315.99 40.14 315.99 22.18 313.43 22.18 313.43 35.57"/><path d="M512.15,27c0-1.56,1.31-2.85,4.36-2.85,1.59,0,3.36,.46,4.93,1.46l.85-2.05c-1.49-1.03-3.67-1.59-5.77-1.59-4.72,0-6.88,2.36-6.88,5.13,0,6.67,10.88,3.9,10.88,8.29,0,1.57-1.33,2.77-4.44,2.77-2.31,0-4.59-.87-5.93-2.08l-.95,2c1.44,1.33,4.13,2.26,6.88,2.26,4.75,0,6.96-2.36,6.96-5.11,0-6.59-10.88-3.85-10.88-8.24Z"/><path d="M553.23,24.26c2.03,0,3.72,.64,5.21,2.08l1.59-1.59c-1.64-1.82-4.05-2.77-6.9-2.77-5.57,0-9.62,3.88-9.62,9.19s4.05,9.19,9.57,9.19c2.52,0,5.01-.77,6.8-2.28v-7.01h-2.47v5.85c-1.28,.82-2.69,1.16-4.21,1.16-4.13,0-7.13-2.95-7.13-6.9s3.01-6.9,7.16-6.9Z"/><polygon points="582.77 35.57 571.99 22.18 569.89 22.18 569.89 40.14 572.46 40.14 572.46 26.75 583.23 40.14 585.34 40.14 585.34 22.18 582.77 22.18 582.77 35.57"/><rect x="531.89" y="22.18" width="2.57" height="17.96"/><path d="M439.6,36.37c.72-1.13,1.26-2.52,1.57-4.11l-1.98-.64c-.23,1.26-.62,2.34-1.1,3.26l-4.44-4.42c2.75-1.56,3.82-2.87,3.82-4.69,0-2.34-1.75-3.75-4.47-3.75-2.95,0-4.85,1.61-4.85,4.03,0,1.33,.54,2.49,2.15,4.1-3.11,1.77-4.36,3.31-4.36,5.52,0,2.74,2.64,4.67,6.29,4.67,2.39,0,4.44-.79,6-2.31l2.39,2.39,1.38-1.64-2.41-2.41Zm-6.59-12.55c1.54,0,2.39,.79,2.39,1.97s-.77,1.95-3.13,3.29c-1.46-1.49-1.82-2.16-1.82-3.08,0-1.28,.95-2.18,2.57-2.18Zm-.62,14.47c-2.41,0-4.03-1.16-4.03-2.88,0-1.44,.79-2.49,3.31-3.9l5.11,5.08c-1.15,1.13-2.67,1.7-4.39,1.7Z"/><path d="M469.8,22.18h-7.57v17.96h7.57c5.77,0,9.7-3.64,9.7-8.98s-3.93-8.98-9.7-8.98Zm-.15,15.73h-4.85v-13.5h4.85c4.44,0,7.29,2.72,7.29,6.75s-2.85,6.75-7.29,6.75Z"/><polygon points="491.1 32.11 500.11 32.11 500.11 29.93 491.1 29.93 491.1 24.41 501.21 24.41 501.21 22.18 488.53 22.18 488.53 40.14 501.57 40.14 501.57 37.91 491.1 37.91 491.1 32.11"/></g><g><path d="M46.26,4.79c-2.3-1.35-4.79-2.34-7.46-2.98-2.68-.63-5.62-.95-8.85-.95H0v.17L5.78,6.47c.52,.52,.78,1.21,.78,2.07V53.85c0,.86-.26,1.55-.78,2.07L0,61.36v.17H31.24v-.17l-8.11-5.96c-.63-.52-.95-1.24-.95-2.16v-14.24h5.61c7.94,0,14.23-1.67,18.86-5.01,4.63-3.34,6.95-8.29,6.95-14.84,0-3.34-.65-6.23-1.94-8.67-1.29-2.45-3.09-4.34-5.39-5.7Zm-11.95,27.75c-1.99,3.16-4.7,4.75-8.16,4.75h-3.97V4.23c0-.69,.09-1.13,.26-1.34,.17-.2,.6-.3,1.29-.3h3.28c3.22,0,5.74,1.54,7.55,4.62,1.81,3.08,2.72,7.21,2.72,12.38,0,5.47-.99,9.78-2.98,12.95ZM207.91,.86v.17l7.68,11.13c.52,.75,.81,1.27,.86,1.55,.06,.29,0,.81-.17,1.55l-11.39,36.68-13.64-42.89c-.29-.81-.2-1.55,.26-2.24l4.14-5.78v-.17h-25.63v.17l3.63,5.78c.75,1.09,1.32,2.27,1.73,3.54l16.4,51.18h12.08l14.24-45.83c.4-1.26,1.06-2.5,1.99-3.71l8.2-10.96v-.17h-20.37ZM108.48,54.29l-7.85-18.64-11.13-3.28v-.17c5.98-.46,10.63-2.06,13.94-4.79,3.31-2.73,4.96-6.4,4.96-11,0-5.29-1.89-9.2-5.65-11.74-3.77-2.53-8.56-3.8-14.37-3.8H55.06v.17l5.78,5.44c.52,.52,.78,1.21,.78,2.07V53.85c0,.86-.26,1.55-.78,2.07l-5.78,5.44v.17h28.83v-.17l-5.78-5.35c-.58-.52-.86-1.21-.86-2.07v-20.71h4.49c.92,0,1.55,.35,1.9,1.04l10.7,27.27h20.19v-.17l-3.71-3.8c-1.15-1.15-1.93-2.24-2.33-3.28Zm-26.75-22.78h-4.49V4.23c0-.69,.09-1.13,.26-1.34,.17-.2,.6-.3,1.29-.3h3.28c6.44,0,9.67,4.92,9.67,14.76s-3.34,14.15-10.01,14.15Zm63.09,3.37l4.83,5.52c.52,.63,.78,1.44,.78,2.42v15.36c0,.63-.26,1.09-.78,1.38-1.27,.52-2.7,.78-4.32,.78-4.32,0-7.48-2.3-9.49-6.9-2.01-4.6-3.02-12.31-3.02-23.13,0-19.1,4.75-28.65,14.24-28.65h1.47c1.21,0,2.1,.46,2.68,1.38l13.46,20.11h.17V1.99c-6.04-1.32-12.63-1.99-19.76-1.99-9.55,0-16.96,2.82-22.22,8.46-5.26,5.64-7.9,13.23-7.9,22.78s2.4,17.28,7.21,22.83c4.8,5.55,11.29,8.33,19.46,8.33,3.85,0,7.62-.78,11.31-2.33l13.12,2.33v-19.59c0-.98,.26-1.78,.78-2.42l4.83-5.52v-.17h-26.84v.17Z"/><polygon class="d" points="220.5 48.08 216.62 54.81 212.73 61.53 220.5 61.53 228.28 61.53 224.39 54.81 220.5 48.08"/></g></g></g></g></svg>