<?xml version="1.0" encoding="UTF-8" standalone="no"?><svg xmlns="http://www.w3.org/2000/svg" xml:space="preserve" width="1430.8427" height="501.54813"><defs><clipPath clipPathUnits="userSpaceOnUse" id="a"><path d="M0 425.2h1133.86V0H0Z"/></clipPath></defs><g clip-path="url(#a)" transform="matrix(1.33333 0 0 -1.33333 -40.196399 534.99212)"><path d="M0 0h24.981c6.164 0 10.606 1.044 13.333 3.134 2.722 2.085 4.084 5.371 4.084 9.853 0 4.482-1.362 7.816-4.084 10.01-2.727 2.186-7.169 3.284-13.333 3.284H0Zm0 70.132V45.686h21.236c6.164 0 10.607 1.018 13.333 3.055 2.723 2.034 4.085 5.142 4.085 9.319 0 4.127-1.348 7.169-4.046 9.129-2.703 1.961-7.155 2.943-13.372 2.943zM43.313 36.44c7.336-1.526 13-4.572 17.002-9.13 3.998-4.556 5.993-10.427 5.993-17.606 0-9.067-3.09-16.236-9.279-21.508-6.188-5.269-14.681-7.905-25.478-7.905h-54.393v109.55h50.649c10.594 0 18.984-2.597 25.171-7.792 6.19-5.198 9.283-12.148 9.283-20.854 0-6.264-1.63-11.5-4.891-15.7-3.258-4.205-7.945-7.218-14.057-9.055" style="fill:#073050;fill-opacity:1;fill-rule:nonzero;stroke:none" transform="translate(351.0278 251.8799)"/><path d="M0 0c3.616-4.047 8.48-6.069 14.591-6.069 6.114 0 10.977 2.022 14.593 6.069 3.616 4.05 5.424 9.384 5.424 16.007 0 6.62-1.808 11.953-5.424 16.004-3.616 4.047-8.479 6.073-14.593 6.073-6.111 0-10.975-2.026-14.591-6.073-3.616-4.051-5.424-9.384-5.424-16.004C-5.424 9.384-3.616 4.05 0 0m14.591-26.09c-8.454 0-15.941 1.898-22.46 5.696-6.518 3.792-11.496 8.862-14.935 15.201-3.435 6.34-5.156 13.406-5.156 21.2 0 7.84 1.721 14.932 5.156 21.275 3.439 6.342 8.417 11.393 14.935 15.165C-1.35 56.215 6.137 58.1 14.591 58.1c8.506 0 16.033-1.885 22.576-5.653 6.542-3.772 11.535-8.823 14.975-15.165 3.434-6.343 5.152-13.435 5.152-21.275 0-7.794-1.718-14.86-5.152-21.2-3.44-6.339-8.433-11.409-14.975-15.201-6.543-3.798-14.07-5.696-22.576-5.696" style="fill:#073050;fill-opacity:1;fill-rule:nonzero;stroke:none" transform="translate(458.896 256.043)"/><path d="M0 0c-9.728 0-16.807 2.039-21.236 6.113-4.432 4.075-6.648 10.643-6.648 19.71v35.828h-14.515v19.327h14.515v23.531h22.231V80.978h21.314V61.651H-5.653v-32.39c0-3.515.826-5.987 2.482-7.412 1.655-1.427 4.444-2.138 8.364-2.138 3.212 0 6.801.406 10.773 1.223V2.139C11.28.713 5.957 0 0 0" style="fill:#073050;fill-opacity:1;fill-rule:nonzero;stroke:none" transform="translate(566.2314 230.9482)"/><path d="M598.396 311.926h22.226v-79.754h-22.226zm20.665 15.28c-2.628-2.65-5.8-3.974-9.514-3.974-3.722 0-6.886 1.324-9.514 3.974-2.621 2.645-3.931 5.856-3.931 9.624 0 3.769 1.31 6.954 3.931 9.551 2.628 2.598 5.792 3.893 9.514 3.893 3.714 0 6.886-1.295 9.514-3.893 2.621-2.597 3.931-5.782 3.931-9.551 0-3.768-1.31-6.979-3.931-9.624" style="fill:#073050;fill-opacity:1;fill-rule:nonzero;stroke:none"/><path d="m0 0-9.397-9.396v-20.781h-22.23V84.188h22.23V17.033L21.466 49.58H49.12L14.516 14.742l34.91-44.919H22.841Z" style="fill:#073050;fill-opacity:1;fill-rule:nonzero;stroke:none" transform="translate(673.6426 262.3477)"/><path d="M0 0c5.5 0 9.894 1.516 13.177 4.548 3.287 3.028 4.929 7.065 4.929 12.106v2.444H2.217c-4.944 0-8.556-.776-10.848-2.329-2.292-1.555-3.439-3.912-3.439-7.065 0-3.057 1.042-5.438 3.133-7.144C-6.852.852-3.871 0 0 0m46.139 2.677c1.276 0 2.525.149 3.748.455v-18.106c-3.008-.967-6.241-1.454-9.704-1.454-5.347 0-9.701 1.214-13.062 3.631-3.361 2.422-5.426 5.92-6.189 10.506-1.936-4.328-5.195-7.771-9.779-10.313-4.584-2.544-10.084-3.824-16.501-3.824-8.759 0-15.727 2.258-20.894 6.766C-31.41-5.156-33.994.891-33.994 8.479c0 7.796 2.903 13.867 8.709 18.223 5.803 4.353 14.182 6.532 25.132 6.532h18.259v2.292c0 4.224-1.109 7.371-3.323 9.432-2.218 2.062-5.643 3.095-10.274 3.095-8.05 0-14.974-2.979-20.78-8.94l-12.833 13.679c3.917 4.63 8.936 8.236 15.047 10.805 6.112 2.573 12.831 3.861 20.168 3.861 10.696 0 18.973-2.727 24.83-8.175 5.854-5.453 8.784-13.038 8.784-22.767V9.856c0-4.791 2.138-7.179 6.414-7.179" style="fill:#073050;fill-opacity:1;fill-rule:nonzero;stroke:none" transform="translate(760.3486 246.6855)"/><path d="M0 0c3.616-4.048 8.479-6.071 14.593-6.071 6.112 0 10.975 2.023 14.591 6.071 3.616 4.05 5.424 9.385 5.424 16.009 0 6.617-1.808 11.951-5.424 16.002-3.616 4.047-8.479 6.074-14.591 6.074-6.114 0-10.977-2.027-14.593-6.074-3.616-4.051-5.424-9.385-5.424-16.002C-5.424 9.385-3.616 4.05 0 0m56.073 90.644V-23.872H34.15v11.92c-2.292-4.434-5.782-7.897-10.466-10.393-4.687-2.495-9.91-3.745-15.663-3.745-10.44 0-19.045 3.922-25.823 11.769-6.771 7.84-10.158 17.95-10.158 30.33 0 12.372 3.387 22.483 10.158 30.326C-11.024 54.175-2.419 58.1 8.021 58.1c5.706 0 10.833-1.175 15.395-3.514 4.554-2.343 8.031-5.653 10.427-9.932v45.99z" style="fill:#073050;fill-opacity:1;fill-rule:nonzero;stroke:none" transform="translate(349.8818 92.6328)"/><path d="M427.269 148.519h22.23V68.764h-22.23zm20.666 15.275c-2.625-2.645-5.796-3.969-9.513-3.969-3.716 0-6.887 1.324-9.508 3.969-2.624 2.648-3.937 5.857-3.937 9.626 0 3.768 1.313 6.954 3.937 9.551 2.621 2.597 5.792 3.894 9.508 3.894 3.717 0 6.888-1.297 9.513-3.894 2.622-2.597 3.933-5.783 3.933-9.551 0-3.769-1.311-6.978-3.933-9.626" style="fill:#073050;fill-opacity:1;fill-rule:nonzero;stroke:none"/><path d="M0 0c-11.101 0-20.768 2.166-28.989 6.495-8.23 4.329-14.276 10.316-18.146 17.954l16.272 12.376c3.261-5.146 7.637-9.119 13.138-11.917 5.5-2.804 11.613-4.203 18.336-4.203 6.162 0 10.887 1.134 14.172 3.401 3.286 2.265 4.926 5.362 4.926 9.284 0 3.001-1.147 5.483-3.438 7.445-2.291 1.963-6.212 3.575-11.766 4.853l-17.643 4.277c-20.681 5.042-31.018 15.507-31.018 31.396 0 9.728 3.742 17.584 11.232 23.567 7.485 5.986 17.72 8.977 30.708 8.977 9.83 0 18.487-1.796 25.973-5.384 7.486-3.593 13.014-8.468 16.579-14.631L24.215 81.361C17.849 89.31 8.938 93.279-2.521 93.279c-5.906 0-10.402-1.032-13.483-3.093-3.084-2.065-4.624-4.852-4.624-8.367 0-2.699 1.148-4.963 3.439-6.797 2.291-1.833 6.394-3.466 12.301-4.889l18.18-4.203c19.914-4.889 29.872-15.329 29.872-31.322 0-10.389-3.83-18.752-11.5-25.094C24.001 3.171 13.445 0 0 0" style="fill:#073050;fill-opacity:1;fill-rule:nonzero;stroke:none" transform="translate(546.751 66.543)"/><path d="M0 0c-10.39 0-16.576-5.144-18.562-15.428h35.674c-.407 4.934-2.074 8.743-5.005 11.415C9.181-1.337 5.141 0 0 0m39.114-22.154c0-2.499-.153-5.069-.459-7.717h-57.217c2.187-11.052 9.32-16.572 21.387-16.572 8.509 0 15.407 2.872 20.704 8.627l12.682-13.14c-3.819-4.584-8.658-8.135-14.515-10.658-5.857-2.519-12.451-3.782-19.785-3.782-12.986 0-23.376 3.782-31.168 11.347-7.792 7.561-11.69 17.709-11.69 30.442 0 12.477 3.745 22.667 11.231 30.557 7.487 7.898 17.34 11.843 29.564 11.843 11.811 0 21.315-3.718 28.496-11.153 7.181-7.436 10.77-17.37 10.77-29.794" style="fill:#073050;fill-opacity:1;fill-rule:nonzero;stroke:none" transform="translate(642.5488 131.9395)"/><path d="M0 0c2.546 0 4.784-.357 6.723-1.07v-21.162c-3.318.61-6.546.916-9.704.916-6.723 0-11.687-1.695-14.895-5.08-3.209-3.384-4.814-8.824-4.814-16.31v-38.652h-22.23v79.752h21.771v-13.14c1.935 4.635 4.954 8.25 9.051 10.848C-9.996-1.301-5.3 0 0 0" style="fill:#073050;fill-opacity:1;fill-rule:nonzero;stroke:none" transform="translate(743.0088 150.1221)"/><path d="m0 0-30.021-79.752h-24.218L-84.339 0h23.835l18.413-54.087L-23.757 0Z" style="fill:#073050;fill-opacity:1;fill-rule:nonzero;stroke:none" transform="translate(841.8623 148.5156)"/><path d="M854.164 148.519h22.232V68.764h-22.232zm20.663 15.275c-2.624-2.645-5.796-3.969-9.51-3.969-3.721 0-6.889 1.324-9.513 3.969-2.621 2.648-3.932 5.857-3.932 9.626 0 3.768 1.311 6.954 3.932 9.551 2.624 2.597 5.792 3.894 9.513 3.894 3.714 0 6.886-1.297 9.51-3.894 2.621-2.597 3.936-5.783 3.936-9.551 0-3.769-1.315-6.978-3.936-9.626" style="fill:#073050;fill-opacity:1;fill-rule:nonzero;stroke:none"/><path d="M0 0c-7.793 0-14.926 1.264-21.391 3.782-6.471 2.524-11.666 6.024-15.584 10.505l10.848 14.668c3.256-3.26 7.225-5.843 11.917-7.755 4.683-1.908 9.474-2.862 14.362-2.862 3.82 0 6.771.622 8.862 1.871 2.085 1.246 3.131 2.913 3.131 5.005 0 1.727-.75 3.168-2.255 4.315-1.5 1.144-3.932 2.102-7.293 2.866l-13.292 3.13c-8.153 1.987-14.071 4.875-17.768 8.671-3.687 3.793-5.534 8.52-5.534 14.172 0 7.745 3.018 13.983 9.052 18.715 6.036 4.736 14.25 7.106 24.639 7.106 6.923 0 13.33-1.083 19.207-3.249 5.888-2.163 10.634-5.154 14.253-8.973L22.378 57.299c-7.381 5.602-15.071 8.403-23.067 8.403-3.718 0-6.52-.584-8.404-1.755-1.885-1.175-2.825-2.781-2.825-4.814 0-1.481.71-2.71 2.136-3.708 1.426-.991 3.846-1.871 7.259-2.631l13.748-3.365c8.254-1.936 14.174-4.811 17.763-8.631 3.593-3.819 5.389-8.61 5.389-14.359 0-8.155-3.032-14.596-9.093-19.333C19.224 2.37 10.79 0 0 0" style="fill:#073050;fill-opacity:1;fill-rule:nonzero;stroke:none" transform="translate(928.4971 66.543)"/><path d="M978.913 148.519h22.232V68.764h-22.232zm20.667 15.275c-2.624-2.645-5.795-3.969-9.51-3.969-3.721 0-6.888 1.324-9.513 3.969-2.621 2.648-3.932 5.857-3.932 9.626 0 3.768 1.311 6.954 3.932 9.551 2.625 2.597 5.792 3.894 9.513 3.894 3.715 0 6.886-1.297 9.51-3.894 2.621-2.597 3.936-5.783 3.936-9.551 0-3.769-1.315-6.978-3.936-9.626" style="fill:#073050;fill-opacity:1;fill-rule:nonzero;stroke:none"/><path d="M0 0c3.616-4.048 8.478-6.071 14.593-6.071 6.111 0 10.973 2.023 14.59 6.071 3.616 4.05 5.425 9.385 5.425 16.009 0 6.617-1.809 11.951-5.425 16.002-3.617 4.047-8.479 6.074-14.59 6.074-6.115 0-10.977-2.027-14.593-6.074-3.616-4.051-5.422-9.385-5.422-16.002C-5.422 9.385-3.616 4.05 0 0m14.593-26.09c-8.458 0-15.945 1.899-22.46 5.694-6.523 3.792-11.5 8.866-14.936 15.201-3.439 6.342-5.157 13.408-5.157 21.204 0 7.84 1.718 14.932 5.157 21.271 3.436 6.342 8.413 11.395 14.936 15.166 6.515 3.77 14.002 5.654 22.46 5.654 8.505 0 16.029-1.884 22.568-5.654 6.55-3.771 11.541-8.824 14.977-15.166 3.439-6.339 5.154-13.431 5.154-21.271 0-7.796-1.715-14.862-5.154-21.204-3.436-6.335-8.427-11.409-14.977-15.201-6.539-3.795-14.063-5.694-22.568-5.694" style="fill:#073050;fill-opacity:1;fill-rule:nonzero;stroke:none" transform="translate(1045.9873 92.6328)"/><path d="M0 0c55.632 0 100.728-45.098 100.728-100.73 0-55.632-45.096-100.728-100.728-100.728Z" style="fill:#00aeea;fill-opacity:1;fill-rule:nonzero;stroke:none" transform="translate(130.9331 268.9653)"/><path d="M0 0c27.814 0 50.364-22.55 50.364-50.364 0-27.815-22.55-50.366-50.364-50.366Z" style="fill:#00aeea;fill-opacity:1;fill-rule:nonzero;stroke:none" transform="translate(130.9331 401.2441)"/><path d="M0 0c-32.16 0-58.232 26.072-58.232 58.232 0 32.161 26.072 58.23 58.232 58.23z" style="fill:#00aeea;fill-opacity:1;fill-rule:nonzero;stroke:none" transform="translate(109.8823 25.083)"/><path d="M0 0c-44.037 0-79.737 35.698-79.737 79.734 0 44.037 35.7 79.737 79.737 79.737z" style="fill:#00aeea;fill-opacity:1;fill-rule:nonzero;stroke:none" transform="translate(109.8843 185.3584)"/></g></svg>