<?xml version="1.0" encoding="UTF-8"?><svg id="Layer_1" xmlns="http://www.w3.org/2000/svg" viewBox="0 0 355.06 192.14"><defs><style>.cls-1{fill:#fff;}</style></defs><g><path class="cls-1" d="m172.22,99.51c-1.42-2.36-3.23-4.29-5.45-5.8-2.21-1.51-4.65-2.26-7.31-2.26s-5.27.77-7.48,2.3c-2.21,1.54-3.94,3.43-5.18,5.67-.12.12-.18.24-.18.35h25.68c-.06,0-.09-.03-.09-.09v-.18Z"/><path class="cls-1" d="m96.07,0C43.01,0,0,43.01,0,96.07s43.01,96.07,96.07,96.07,96.07-43.01,96.07-96.07S149.13,0,96.07,0Zm-30.05,102.32c.97,2.16,1.49,4.35,1.55,6.6,0,2.3-.47,4.44-1.42,6.42-.94,1.98-2.21,3.72-3.81,5.23-1.59,1.51-3.44,2.73-5.54,3.68-2.1.95-4.3,1.54-6.6,1.77H15.49c-1.18,0-2.23-.41-3.14-1.24-.91-.83-1.37-1.86-1.37-3.1s.46-2.36,1.37-3.19c.92-.83,1.96-1.24,3.14-1.24h34.1c1.18,0,2.26-.22,3.23-.66.97-.44,1.85-1.05,2.61-1.82.77-.77,1.36-1.65,1.77-2.66.41-1,.62-2.07.62-3.19s-.21-2.18-.62-3.19c-.41-1-1-1.89-1.77-2.66-.77-.77-1.64-1.37-2.61-1.82-.97-.44-2.05-.66-3.23-.66H15.49c-1.18,0-2.23-.41-3.14-1.24-.91-.83-1.37-1.92-1.37-3.28,0-1.24.46-2.29,1.37-3.14.92-.86,1.96-1.28,3.14-1.28h34.1c1.18,0,2.26-.22,3.23-.66.97-.44,1.85-1.03,2.61-1.77.77-.74,1.36-1.59,1.77-2.57.41-.97.62-2.02.62-3.14,0-2.36-.8-4.34-2.39-5.93-1.59-1.59-3.54-2.39-5.85-2.39H15.49c-1.18,0-2.23-.44-3.14-1.33-.91-.88-1.37-1.95-1.37-3.19s.46-2.23,1.37-3.14c.92-.91,1.96-1.37,3.14-1.37h34.81c2.3.06,4.49.55,6.55,1.46,2.07.92,3.9,2.16,5.49,3.72,1.59,1.57,2.86,3.4,3.81,5.49.95,2.1,1.42,4.33,1.42,6.69,0,2.07-.46,4.18-1.37,6.33-.91,2.16-2.32,4.21-4.21,6.16,1.71,2.07,3.06,4.18,4.03,6.33Zm23.4,21.81c-.77.77-1.65,1.3-2.66,1.59h-1.24c-1.95,0-3.81-.41-5.58-1.24-1.77-.83-3.32-1.93-4.65-3.32-1.33-1.39-2.38-3-3.14-4.83-.77-1.83-1.15-3.72-1.15-5.67v-37.29c0-1,.46-1.98,1.37-2.92.91-.94,1.96-1.42,3.14-1.42,1.06,0,2.05.43,2.97,1.28.91.86,1.37,1.87,1.37,3.06v37.29c0,1.89.59,3.45,1.77,4.69,1.18,1.24,2.71,1.86,4.61,1.86,1.18,0,2.2.41,3.06,1.24.86.83,1.31,1.83,1.37,3.01-.06,1-.47,1.89-1.24,2.66Zm45.96-19.93c0,2.95-.56,5.73-1.68,8.32-1.12,2.6-2.66,4.87-4.61,6.82-1.95,1.95-4.24,3.48-6.86,4.61-2.63,1.12-5.45,1.68-8.46,1.68-2.83.12-5.55-.37-8.15-1.46-2.6-1.09-4.87-2.58-6.82-4.47-1.95-1.89-3.51-4.12-4.69-6.69s-1.77-5.27-1.77-8.1v-17.8c0-1.18.43-2.2,1.28-3.06.86-.86,1.9-1.31,3.14-1.37,1.12.06,2.13.53,3.01,1.42.89.89,1.33,1.92,1.33,3.1v17c0,1.77.34,3.42,1.02,4.96.68,1.54,1.59,2.88,2.75,4.03,1.15,1.15,2.51,2.07,4.07,2.75,1.56.68,3.2,1.02,4.92,1.02s3.25-.31,4.78-.93c1.53-.62,2.89-1.46,4.07-2.52,1.18-1.06,2.11-2.35,2.79-3.85.68-1.51,1.02-3.14,1.02-4.92v-17.62c0-.77.18-1.48.53-2.13.29-.29.56-.62.8-.97,1-.89,2.01-1.33,3.01-1.33,1.12,0,2.18.44,3.19,1.33.47.47.8.95.97,1.42.18.47.29.97.35,1.51v17.27Zm41.09,4.52h-29.76c1.71,3.07,3.7,5.26,5.98,6.55,2.27,1.3,4.53,1.95,6.78,1.95,1.24,0,2.3-.15,3.19-.44.89-.29,1.65-.56,2.3-.8.77-.53,1.62-.8,2.57-.8,1.3.12,2.35.64,3.14,1.55.8.92,1.2,1.9,1.2,2.97,0,.47-.07.97-.22,1.51-.15.53-.46,1-.93,1.42l.09-.18c-1.54,1.24-3.28,2.13-5.23,2.66-1.95.53-4.02.83-6.2.89-2.89.12-5.65-.4-8.28-1.55-2.63-1.15-4.93-2.73-6.91-4.74-1.98-2.01-3.54-4.34-4.69-7-1.15-2.66-1.73-5.46-1.73-8.41s.58-5.56,1.73-8.19c1.15-2.63,2.73-4.93,4.74-6.91,2.01-1.98,4.31-3.57,6.91-4.78,2.6-1.21,5.37-1.82,8.33-1.82s5.56.61,8.19,1.82c2.63,1.21,4.93,2.81,6.91,4.78,1.98,1.98,3.57,4.28,4.78,6.91,1.21,2.63,1.82,5.36,1.82,8.19,0,1.18-.44,2.23-1.33,3.14-.89.92-2.01,1.34-3.37,1.28Z"/></g><g><path class="cls-1" d="m257.47,60.18c-1.27,0-2.35.47-3.25,1.4-.9.93-1.36,2-1.36,3.21v34.79c0,2.35-.81,4.34-2.44,5.96s-3.65,2.44-6.05,2.44c-1.14,0-2.21-.21-3.21-.63-.99-.42-1.87-1.02-2.62-1.81-.75-.78-1.36-1.67-1.81-2.67-.45-.99-.68-2.09-.68-3.3v-34.79c0-1.2-.44-2.27-1.31-3.21-.87-.93-1.94-1.4-3.21-1.4-1.39,0-2.5.47-3.34,1.4-.84.93-1.27,2-1.27,3.21v34.79c0,1.21-.23,2.31-.68,3.3-.45.99-1.07,1.88-1.85,2.67-.78.78-1.69,1.39-2.71,1.81-1.02.42-2.11.63-3.25.63s-2.23-.21-3.25-.63c-1.03-.42-1.93-1.02-2.71-1.81-.78-.78-1.4-1.67-1.85-2.67-.45-.99-.68-2.09-.68-3.3v-34.79c0-1.2-.42-2.27-1.27-3.21-.84-.93-1.93-1.4-3.25-1.4s-2.32.47-3.16,1.4c-.84.93-1.27,2-1.27,3.21v35.42c.24,2.35.84,4.59,1.81,6.73.96,2.14,2.21,4.02,3.75,5.65,1.54,1.63,3.31,2.92,5.33,3.89,2.02.96,4.2,1.45,6.55,1.45,2.29-.06,4.53-.59,6.73-1.58,2.2-.99,4.35-2.36,6.46-4.11,1.99,1.93,4.08,3.36,6.28,4.29,2.2.94,4.35,1.4,6.46,1.4,2.41,0,4.68-.48,6.82-1.45,2.14-.96,4.01-2.26,5.6-3.89,1.6-1.63,2.86-3.49,3.79-5.6.93-2.11,1.43-4.34,1.49-6.69v-35.51c0-1.2-.47-2.27-1.4-3.21-.94-.93-2-1.4-3.21-1.4Z"/><path class="cls-1" d="m302.24,80.74c-2.02-2.02-4.37-3.64-7.05-4.88-2.68-1.23-5.47-1.85-8.36-1.85s-5.84.62-8.49,1.85c-2.65,1.24-5,2.86-7.05,4.88-2.05,2.02-3.66,4.37-4.83,7.05-1.17,2.68-1.76,5.47-1.76,8.36s.59,5.87,1.76,8.58c1.17,2.71,2.77,5.09,4.79,7.14,2.02,2.05,4.37,3.66,7.05,4.83,2.68,1.17,5.5,1.7,8.45,1.58,2.23-.06,4.34-.36,6.33-.9,1.99-.54,3.76-1.45,5.33-2.71l-.09.18c.48-.42.8-.9.95-1.45.15-.54.23-1.05.23-1.54,0-1.09-.41-2.09-1.22-3.03-.81-.93-1.88-1.46-3.21-1.58-.96,0-1.84.27-2.62.81-.66.24-1.44.51-2.35.81-.9.3-1.99.45-3.25.45-2.29,0-4.59-.66-6.91-1.99-2.32-1.33-4.35-3.55-6.1-6.69h30.36c1.39.06,2.53-.38,3.43-1.31.9-.93,1.36-2,1.36-3.21,0-2.89-.62-5.68-1.85-8.36-1.24-2.68-2.86-5.03-4.88-7.05Zm-28.51,10.8c0-.12.06-.24.18-.36,1.27-2.29,3.03-4.22,5.29-5.78,2.26-1.57,4.8-2.35,7.64-2.35s5.2.77,7.46,2.3c2.26,1.54,4.11,3.51,5.56,5.92v.18c0,.06.03.09.09.09h-26.21Z"/><path class="cls-1" d="m353.48,87.48c-1.05-2.47-2.64-4.79-4.75-6.96v.09c-2.23-2.11-4.69-3.71-7.36-4.79-2.68-1.08-5.44-1.63-8.27-1.63-1.69,0-3.69.27-6.01.81-2.32.54-4.62,1.6-6.91,3.16v-13.37c0-.6-.12-1.17-.36-1.72-.24-.54-.56-1.04-.95-1.49-.39-.45-.86-.8-1.4-1.04-.54-.24-1.08-.33-1.63-.27h-.36c-1.02-.06-1.99.35-2.89,1.22-.9.87-1.36,1.82-1.36,2.85v31.72c0,2.95.6,5.75,1.81,8.4,1.2,2.65,2.83,4.97,4.88,6.96,2.05,1.99,4.38,3.57,7,4.74,2.62,1.17,5.38,1.76,8.27,1.76s5.75-.57,8.4-1.72c2.65-1.14,4.97-2.71,6.96-4.7,1.99-1.99,3.57-4.31,4.74-6.96,1.17-2.65,1.76-5.48,1.76-8.49,0-3.25-.53-6.11-1.58-8.58Zm-8.32,13.65c-.69,1.57-1.63,2.94-2.8,4.11-1.18,1.17-2.56,2.11-4.16,2.8-1.6.69-3.27,1.04-5.02,1.04s-3.4-.35-4.97-1.04c-1.57-.69-2.95-1.63-4.16-2.8-1.21-1.17-2.15-2.54-2.85-4.11-.69-1.57-1.04-3.25-1.04-5.06,0-1.63.35-3.22,1.04-4.79.69-1.57,1.64-2.97,2.85-4.2,1.2-1.23,2.59-2.21,4.16-2.94,1.57-.72,3.22-1.08,4.97-1.08s3.42.35,5.02,1.04c1.59.69,2.98,1.63,4.16,2.8,1.17,1.17,2.11,2.56,2.8,4.16.69,1.6,1.04,3.27,1.04,5.02s-.35,3.49-1.04,5.06Z"/></g><g><path class="cls-1" d="m210.7,134.42c.7,0,1.32-.26,1.85-.79.53-.53.79-1.18.79-1.98,0-.72-.26-1.36-.79-1.93-.53-.56-1.15-.84-1.85-.84h-15.04c-.78,0-1.42.28-1.93.84-.51.56-.77,1.2-.77,1.93v29.14c0,.79.26,1.46.77,1.98.51.53,1.16.79,1.93.79s1.42-.26,1.93-.79c.51-.52.77-1.18.77-1.98v-10.69h8.53c.78,0,1.41-.27,1.91-.81.49-.54.74-1.19.74-1.95s-.25-1.36-.74-1.93c-.49-.56-1.13-.84-1.91-.84h-8.53v-10.15h12.34Z"/><path class="cls-1" d="m233.97,141.66c-1.01-1.18-2.21-2.14-3.6-2.9-1.4-.76-2.89-1.23-4.47-1.41-.28-.04-.53-.05-.74-.05h-.74c-2.65,0-5.01.72-7.1,2.17-2.08,1.45-3.64,3.35-4.66,5.7-.35.83-.63,1.68-.82,2.55-.19.87-.29,1.77-.29,2.71s.1,1.85.29,2.74c.19.89.47,1.73.82,2.52,1.02,2.32,2.58,4.21,4.66,5.67,2.08,1.47,4.45,2.2,7.1,2.2,1.02,0,1.98-.09,2.86-.27.46-.14.9-.29,1.32-.43.42-.14.83-.31,1.22-.49.21-.11.55-.29,1.01-.54.46-.25.78-.42.95-.49.04.51.17.9.4,1.19.23.29.48.52.77.68.28.16.57.26.87.3.3.04.57.05.82.05.67,0,1.27-.26,1.8-.79.53-.52.79-1.15.79-1.87v-10.47c0-1.66-.29-3.24-.88-4.75-.58-1.5-1.38-2.84-2.38-4.02Zm-2.59,11.85c-.41.94-.95,1.76-1.64,2.47-.69.7-1.5,1.26-2.44,1.66-.94.4-1.92.6-2.94.6-.95,0-1.88-.21-2.78-.62s-1.71-.98-2.44-1.68c-.72-.7-1.3-1.53-1.72-2.47s-.64-1.95-.64-3.04.2-2.04.61-2.98c.41-.94.96-1.77,1.67-2.5.71-.72,1.51-1.29,2.41-1.71.9-.42,1.86-.62,2.89-.62s1.99.22,2.91.65c.92.43,1.73,1,2.44,1.71.71.71,1.26,1.54,1.67,2.5.41.96.61,1.94.61,2.96,0,1.12-.2,2.15-.61,3.09Z"/><path class="cls-1" d="m246.07,144.99c.7-.72,1.53-1.3,2.46-1.74.93-.44,1.91-.65,2.94-.65,1.91,0,3.58.67,5.03,2.01.46.47,1.08.7,1.85.7.35,0,.7-.05,1.03-.16.34-.11.63-.29.87-.54.53-.54.79-1.19.79-1.95,0-.25-.05-.52-.13-.79-.09-.27-.26-.53-.5-.79h.05c-2.47-2.53-5.47-3.8-9-3.8-1.73,0-3.37.36-4.92,1.09-1.55.72-2.92,1.69-4.11,2.9-1.18,1.21-2.12,2.6-2.81,4.18-.69,1.57-1.03,3.23-1.03,4.96s.34,3.46,1.03,5.05c.69,1.59,1.62,2.98,2.78,4.18,1.17,1.19,2.52,2.14,4.08,2.85,1.55.7,3.21,1.06,4.98,1.06s3.43-.32,4.9-.95c1.46-.63,2.81-1.58,4.05-2.85.21-.18.37-.43.48-.73.11-.31.16-.61.16-.89,0-.65-.28-1.25-.85-1.79-.53-.58-1.13-.87-1.8-.87-.74,0-1.27.18-1.59.54-1.62,1.48-3.41,2.22-5.35,2.22-1.02.07-1.99-.1-2.91-.52-.92-.41-1.73-.99-2.44-1.74-.71-.74-1.27-1.59-1.7-2.55-.42-.96-.64-1.96-.64-3.01s.2-1.99.61-2.93c.4-.94.96-1.77,1.67-2.5Z"/><path class="cls-1" d="m282.88,155.36c-.78,0-1.43.25-1.96.76h.05c-.64.62-1.37,1.09-2.2,1.44-.83.34-1.84.52-3.05.52-1.06,0-2.06-.22-2.99-.65-.94-.44-1.75-1.01-2.44-1.74-.69-.72-1.23-1.56-1.62-2.52-.39-.96-.58-1.96-.58-3.01v-7.92h12.23c.67,0,1.27-.29,1.8-.87.53-.58.79-1.23.79-1.95s-.25-1.37-.74-1.93c-.5-.56-1.11-.84-1.85-.84h-12.23v-4.88c-.07-.83-.36-1.53-.87-2.09-.51-.56-1.16-.84-1.93-.84s-1.48.31-1.99.92c-.51.61-.77,1.28-.77,2.01v18.39c.03,2.03.42,3.86,1.16,5.51.74,1.65,1.72,3.06,2.94,4.23,1.22,1.18,2.65,2.08,4.29,2.71,1.64.63,3.38.95,5.22.95,1.73,0,3.33-.33,4.79-.98,1.47-.65,2.82-1.59,4.05-2.82h-.05c.25-.22.41-.48.5-.79.09-.31.13-.61.13-.9,0-.79-.25-1.43-.74-1.9-.57-.54-1.22-.81-1.96-.81Z"/><path class="cls-1" d="m308.19,141.74c-1.16-1.19-2.51-2.14-4.05-2.85-1.53-.71-3.17-1.06-4.9-1.06-1.8.07-3.49.46-5.06,1.17-1.57.7-2.94,1.65-4.1,2.82-1.17,1.18-2.07,2.55-2.73,4.12-.65,1.57-.98,3.27-.98,5.07s.34,3.62,1.01,5.21c.67,1.59,1.59,2.98,2.75,4.15,1.17,1.18,2.52,2.09,4.08,2.74,1.55.65,3.21.98,4.98.98s3.48-.34,5.03-1.03c1.55-.69,2.9-1.63,4.05-2.82,1.15-1.19,2.06-2.58,2.73-4.15.67-1.57,1.01-3.26,1.01-5.07s-.34-3.51-1.03-5.1c-.69-1.59-1.62-2.98-2.78-4.18Zm-1.99,12.29c-.41.96-.95,1.8-1.64,2.52-.69.72-1.5,1.29-2.44,1.71-.94.42-1.92.62-2.94.62s-2-.21-2.94-.62c-.94-.41-1.75-.98-2.44-1.71-.69-.72-1.24-1.56-1.64-2.52-.41-.96-.61-1.96-.61-3.01,0-1.12.2-2.15.61-3.09.4-.94.95-1.76,1.64-2.47.69-.7,1.5-1.26,2.44-1.65.93-.4,1.91-.6,2.94-.6h.05c2.19.14,3.97.95,5.35,2.41,1.38,1.46,2.12,3.26,2.23,5.4,0,1.05-.2,2.05-.61,3.01Z"/><path class="cls-1" d="m326.15,137.34c-1.73.07-3.36.44-4.9,1.11-1.54.67-2.89,1.57-4.05,2.71-1.16,1.14-2.09,2.47-2.78,3.99-.69,1.52-1.05,3.16-1.09,4.94v10.91c.11.72.4,1.34.87,1.84.48.51,1.05.76,1.72.76.7,0,1.3-.23,1.77-.71.48-.47.77-1.01.87-1.63v-10.8c0-1.12.2-2.15.61-3.09s.95-1.76,1.64-2.47c.69-.7,1.49-1.26,2.41-1.65.92-.4,1.89-.6,2.91-.6.7-.04,1.31-.32,1.8-.84.49-.52.78-1.13.85-1.82-.11-.65-.41-1.25-.9-1.79-.49-.54-1.08-.83-1.75-.87Z"/><path class="cls-1" d="m354.27,137.91c-.53-.45-1.15-.68-1.85-.68-.74,0-1.36.25-1.85.76-.49.51-.74,1.12-.74,1.84v10.8c0,1.08-.21,2.09-.64,3.01-.42.92-1,1.71-1.72,2.36-.72.65-1.54,1.17-2.46,1.55-.92.38-1.85.57-2.81.57-1.06,0-2.06-.21-2.99-.62s-1.74-.98-2.41-1.68c-.67-.71-1.2-1.53-1.59-2.47-.39-.94-.58-1.93-.58-2.98v-10.69c0-.72-.27-1.31-.82-1.76-.55-.45-1.17-.68-1.88-.68-.74,0-1.36.25-1.85.76-.5.51-.74,1.12-.74,1.84v10.09c0,1.95.34,3.76,1.03,5.43.69,1.66,1.62,3.09,2.81,4.29,1.18,1.19,2.55,2.13,4.1,2.82,1.55.69,3.2,1.03,4.93,1.03,1.09,0,2.28-.19,3.57-.57,1.29-.38,2.64-1.02,4.05-1.93v8.3c0,.79.26,1.44.79,1.93.53.49,1.13.73,1.8.73.7,0,1.32-.24,1.85-.71.53-.47.79-1.07.79-1.79v-29.78c0-.72-.26-1.31-.79-1.76Z"/></g></svg>