<?xml version="1.0" encoding="UTF-8"?>
<svg xmlns="http://www.w3.org/2000/svg" version="1.1" viewBox="0 0 86.3 86.3">
  <defs>
    <style>
      .cls-1 {
        fill: #1c3664;
      }

      .cls-2 {
        fill: #fff;
      }
    </style>
  </defs>
  <!-- Generator: Adobe Illustrator 28.6.0, SVG Export Plug-In . SVG Version: 1.2.0 Build 709)  -->
  <g>
    <g id="Layer_1">
      <g>
        <circle class="cls-1" cx="43.1" cy="43.1" r="43.1"/>
        <g>
          <path class="cls-2" d="M30.3,37.5c0-1.1-.2-2.1-.6-3-.4-.9-1-1.8-1.7-2.5-.7-.7-1.5-1.3-2.5-1.7-.9-.4-1.9-.6-2.9-.7H7c-.5,0-1,.2-1.4.6-.4.4-.6.9-.6,1.4s.2,1,.6,1.4c.4.4.9.6,1.4.6h15.3c1,0,1.9.4,2.6,1.1.7.7,1.1,1.6,1.1,2.7s0,1-.3,1.4c-.2.4-.5.8-.8,1.2-.3.3-.7.6-1.2.8-.4.2-.9.3-1.5.3H7c-.5,0-1,.2-1.4.6-.4.4-.6.9-.6,1.4s.2,1.1.6,1.5c.4.4.9.6,1.4.6h15.3c.5,0,1,0,1.5.3.4.2.8.5,1.2.8.3.3.6.7.8,1.2.2.5.3.9.3,1.4s0,1-.3,1.4c-.2.5-.5.8-.8,1.2-.3.3-.7.6-1.2.8-.4.2-.9.3-1.5.3H7c-.5,0-1,.2-1.4.6-.4.4-.6.8-.6,1.4s.2,1,.6,1.4c.4.4.9.6,1.4.6h15.6c1-.1,2-.4,3-.8.9-.4,1.8-1,2.5-1.7.7-.7,1.3-1.5,1.7-2.3.4-.9.6-1.8.6-2.9,0-1-.3-2-.7-3-.4-1-1-1.9-1.8-2.8.8-.9,1.5-1.8,1.9-2.8.4-1,.6-1.9.6-2.8Z"/>
          <path class="cls-2" d="M38.7,52.6c-.8,0-1.5-.3-2.1-.8-.5-.6-.8-1.3-.8-2.1v-16.7c0-.5-.2-1-.6-1.4-.4-.4-.9-.6-1.3-.6s-1,.2-1.4.6c-.4.4-.6.9-.6,1.3v16.7c0,.9.2,1.7.5,2.5.3.8.8,1.5,1.4,2.2.6.6,1.3,1.1,2.1,1.5.8.4,1.6.6,2.5.6h.6c.5-.1.8-.4,1.2-.7.3-.3.5-.7.6-1.2,0-.5-.2-1-.6-1.4-.4-.4-.8-.6-1.4-.6Z"/>
          <path class="cls-2" d="M60.2,37.7c-.5-.4-.9-.6-1.4-.6s-.9.2-1.4.6c-.1.2-.2.3-.4.4-.2.3-.2.6-.2,1v7.9c0,.8-.2,1.5-.5,2.2-.3.7-.7,1.3-1.3,1.7-.5.5-1.1.9-1.8,1.1-.7.3-1.4.4-2.1.4s-1.5-.2-2.2-.5c-.7-.3-1.3-.7-1.8-1.2-.5-.5-.9-1.1-1.2-1.8-.3-.7-.5-1.4-.5-2.2v-7.6c0-.5-.2-1-.6-1.4-.4-.4-.8-.6-1.4-.6-.6,0-1,.2-1.4.6-.4.4-.6.8-.6,1.4v8c0,1.3.3,2.5.8,3.6s1.2,2.2,2.1,3c.9.8,1.9,1.5,3.1,2,1.2.5,2.4.7,3.7.7,1.4,0,2.6-.3,3.8-.8,1.2-.5,2.2-1.2,3.1-2.1.9-.9,1.6-1.9,2.1-3.1.5-1.2.8-2.4.8-3.7v-7.8c0-.2,0-.5-.2-.7,0-.2-.2-.4-.4-.6Z"/>
          <path class="cls-2" d="M80.6,43.2c-.5-1.2-1.3-2.2-2.1-3.1-.9-.9-1.9-1.6-3.1-2.1-1.2-.5-2.4-.8-3.7-.8s-2.6.3-3.7.8c-1.2.5-2.2,1.3-3.1,2.1-.9.9-1.6,1.9-2.1,3.1-.5,1.2-.8,2.4-.8,3.7s.3,2.6.8,3.8c.5,1.2,1.2,2.2,2.1,3.1.9.9,1.9,1.6,3.1,2.1,1.2.5,2.4.7,3.7.7,1,0,1.9-.2,2.8-.4.9-.2,1.7-.6,2.3-1.2h0c.2-.1.4-.3.4-.6,0-.2,0-.5,0-.7,0-.5-.2-.9-.5-1.3-.4-.4-.8-.6-1.4-.7-.4,0-.8.1-1.2.4-.3.1-.6.2-1,.4-.4.1-.9.2-1.4.2-1,0-2-.3-3-.9-1-.6-1.9-1.6-2.7-2.9h13.4c.6,0,1.1-.2,1.5-.6.4-.4.6-.9.6-1.4,0-1.3-.3-2.5-.8-3.7ZM65.9,44.8c0,0,0-.1,0-.2.6-1,1.3-1.9,2.3-2.5,1-.7,2.1-1,3.4-1s2.3.3,3.3,1c1,.7,1.8,1.5,2.4,2.6h0c0,.1,0,.1,0,.1h-11.5Z"/>
        </g>
      </g>
    </g>
  </g>
</svg>