<?xml version="1.0" encoding="UTF-8"?>
<svg id="Layer_1" xmlns="http://www.w3.org/2000/svg" viewBox="0 0 23.94 23.8">
  <defs>
    <style>
      .cls-1 {
        fill: none;
        stroke: #ec1c24;
        stroke-linecap: round;
        stroke-linejoin: round;
        stroke-width: .47px;
      }
    </style>
  </defs>
  <g id="Reciept">
    <path class="cls-1" d="M10.17,23.57h9.59c2.18,0,3.95-1.77,3.95-3.95h-12.27c-.03,1.29-.4,2.56-1.09,3.66l-.18.3Z"/>
    <path class="cls-1" d="M5.84.23h-2.62C1.57.23.23,1.57.23,3.22v2.93h3.92"/>
    <path class="cls-1" d="M21.19,18.14V3.15c0-1.61-1.3-2.91-2.91-2.91H5.84v20.42c0,1.61,1.3,2.91,2.91,2.91h11.01"/>
    <line class="cls-1" x1="9.09" y1="9.88" x2="15.89" y2="9.88"/>
    <line class="cls-1" x1="9.1" y1="11.44" x2="13.31" y2="11.44"/>
    <line class="cls-1" x1="9.1" y1="14.86" x2="15.91" y2="14.86"/>
    <line class="cls-1" x1="9.1" y1="16.43" x2="13.31" y2="16.43"/>
    <g>
      <path class="cls-1" d="M11.25,4.78c0-.41-.32-.93-1.05-.93-.36,0-.62.11-.8.25-.26.2-.37.54-.25.85.1.27.36.55.97.55,1.15,0,1.12.72,1.12.72,0,.41-.32.93-1.05.93s-1.11-.43-1.11-.64"/>
      <line class="cls-1" x1="10.12" y1="3.85" x2="10.12" y2="3.37"/>
      <line class="cls-1" x1="10.12" y1="7.62" x2="10.12" y2="7.14"/>
    </g>
  </g>
</svg>