<?xml version="1.0" encoding="UTF-8"?>
<svg id="Layer_1" xmlns="http://www.w3.org/2000/svg" viewBox="0 0 37.22 24.85">
  <defs>
    <style>
      .cls-1 {
        fill: none;
        stroke: #ec1c24;
        stroke-linecap: round;
        stroke-linejoin: round;
        stroke-width: .6px;
      }
    </style>
  </defs>
  <g id="Car">
    <polyline class="cls-1" points="24.56 19.54 23.94 19.54 16.19 19.54 7.82 19.54 3.49 19.54 .8 19.54 .8 13.79 3.95 8.48"/>
    <line class="cls-1" x1="30.5" y1="11.98" x2="28.43" y2="8.48"/>
    <polyline class="cls-1" points="1.78 7.46 5.14 7.46 16.16 7.46 27.19 7.46 30.6 7.46"/>
    <polyline class="cls-1" points="27.51 5.84 25.76 .3 16.19 .3 6.62 .3 4.87 5.84"/>
    <path class="cls-1" d="M7.82,19.54v2.67c0,1-.97,1.81-2.16,1.81s-2.16-.81-2.16-1.81v-2.67"/>
    <line class="cls-1" x1="10.25" y1="16.22" x2="22.13" y2="16.22"/>
    <path class="cls-1" d="M3.52,4.87c-.28-.32-1.21-.51-1.67-.51-.86,0-1.55.7-1.55,1.55s.7,1.55,1.55,1.55"/>
    <path class="cls-1" d="M29.05,4.87c.28-.32,1.21-.51,1.67-.51.86,0,1.55.7,1.55,1.55s-.7,1.55-1.55,1.55"/>
    <path class="cls-1" d="M4.98,11.73l.32,1.07c.21.72.87,1.21,1.62,1.21h2.94"/>
    <path class="cls-1" d="M27.4,11.73l-.32,1.07c-.21.72-.87,1.21-1.62,1.21h-2.94"/>
  </g>
  <g>
    <circle class="cls-1" cx="31.57" cy="19.2" r="5.35"/>
    <polyline class="cls-1" points="28.75 19.18 30.68 21.11 34.4 17.39"/>
  </g>
</svg>