<?xml version="1.0" encoding="UTF-8"?>
<svg id="Layer_1" xmlns="http://www.w3.org/2000/svg" viewBox="0 0 26.18 25.42">
  <defs>
    <style>
      .cls-1 {
        fill: none;
        stroke: #ec1c24;
        stroke-linecap: round;
        stroke-linejoin: round;
        stroke-width: .51px;
      }
    </style>
  </defs>
  <g>
    <g>
      <path class="cls-1" d="M3.89,17.98s5.17-3.45,6.71-3.52c1.53-.07,3.31,1.76,3.31,1.76h4.04c.58,0,1.11.37,1.27.93.14.51-.04,1.09-1.33,1.42,0,0-3.28.35-4.01.35"/>
      <path class="cls-1" d="M19.25,17.61l4.6-2.8s1.1-.48,2.07,1.02l-6.68,4.98-6.03,1.02s-3.07-2.65-4.94-1.28c-.61.45-1.33.97-2,1.47"/>
    </g>
    <polyline class="cls-1" points=".26 17.68 2.81 16.17 7.22 23.65 4.67 25.16"/>
  </g>
  <g id="Safe_Packaging">
    <polygon class="cls-1" points="24.29 2.45 12.17 2.45 14.56 .26 22.12 .26 24.29 2.45"/>
    <polygon class="cls-1" points="19.16 2.45 17.43 2.45 17.65 .26 18.94 .26 19.16 2.45"/>
    <rect class="cls-1" x="17.43" y="2.45" width="1.73" height="3.24"/>
    <polygon class="cls-1" points="24.29 7.14 24.29 12.97 20.21 12.97 12.17 12.97 12.17 2.45 24.29 2.45 24.29 7.14"/>
  </g>
</svg>