<?xml version="1.0" encoding="UTF-8"?>
<svg id="Layer_1" xmlns="http://www.w3.org/2000/svg" viewBox="0 0 29.96 23.6">
  <defs>
    <style>
      .cls-1 {
        fill: none;
        stroke: #ec1c24;
        stroke-linecap: round;
        stroke-linejoin: round;
        stroke-width: .5px;
      }
    </style>
  </defs>
  <g>
    <path class="cls-1" d="M25.13,19s-.6-2.64-.53-3.6c.07-.96.69-3.01.26-3.59,0,0-2.16-2.02-.97-3.51,1.2-1.49,4.47-.5,4.47-.5"/>
    <path class="cls-1" d="M20.81,1.27s.2.87.8,2.19c.61,1.32,1.47,1.32,2.16,1.27s2.28-.62,2.79.02"/>
    <path class="cls-1" d="M13.88,2.1s1.47.83,1.46,2.89c0,2.06-1.45,2.8-.39,3.69,1.06.89,3.59.28,3.26,1.82,0,0-2.5,2.14-4.32,2.3"/>
    <path class="cls-1" d="M14.8,16.52c1.17-.42,2.97-1.07,2.36-2.11-.79-1.34,6.33-.63,4.84,3.81-1.49,4.44-4.05,1.61-4.13,1.1-.08-.52-1.07,1.64-.96,1.92"/>
    <path class="cls-1" d="M7.69,11.26C7.69,5.18,12.62.25,18.7.25s11.01,4.93,11.01,11.01-4.93,11.01-11.01,11.01c-1.24,0-2.44-.21-3.56-.59"/>
  </g>
  <g id="Car">
    <polyline class="cls-1" points="11.59 17.09 12.85 19.23 12.85 21.55 6.65 21.55 .45 21.55 .45 19.23 1.72 17.09"/>
    <polyline class="cls-1" points=".85 16.68 2.2 16.68 6.64 16.68 11.09 16.68 12.46 16.68"/>
    <polyline class="cls-1" points="11.22 16.02 10.51 13.79 6.65 13.79 2.79 13.79 2.09 16.02"/>
    <path class="cls-1" d="M3.28,21.55v1.07c0,.4-.39.73-.87.73s-.87-.33-.87-.73v-1.07"/>
    <path class="cls-1" d="M11.77,21.55v1.07c0,.4-.39.73-.87.73s-.87-.33-.87-.73v-1.07"/>
    <line class="cls-1" x1="4.26" y1="20.21" x2="9.05" y2="20.21"/>
    <path class="cls-1" d="M1.55,15.63c-.11-.13-.49-.21-.67-.21-.35,0-.63.28-.63.63s.28.63.63.63"/>
    <path class="cls-1" d="M11.84,15.63c.11-.13.49-.21.67-.21.35,0,.63.28.63.63s-.28.63-.63.63"/>
    <path class="cls-1" d="M2.13,18.4l.13.43c.09.29.35.49.65.49h1.18"/>
    <path class="cls-1" d="M11.17,18.4l-.13.43c-.09.29-.35.49-.65.49h-1.18"/>
  </g>
</svg>