<?xml version="1.0" encoding="UTF-8"?>
<svg id="Layer_1" xmlns="http://www.w3.org/2000/svg" viewBox="0 0 20.07 24">
  <defs>
    <style>
      .cls-1 {
        stroke-width: .47px;
      }

      .cls-1, .cls-2 {
        fill: none;
      }

      .cls-1, .cls-2, .cls-3 {
        stroke: #ec1c24;
        stroke-linecap: round;
        stroke-linejoin: round;
      }

      .cls-2, .cls-3 {
        stroke-width: .28px;
      }

      .cls-3 {
        fill: #fff;
      }
    </style>
  </defs>
  <g id="Documents">
    <g id="Written_Document">
      <g id="Document">
        <path class="cls-1" d="M4.01,4.01V.83c0-.33.26-.59.59-.59h11.79v20.91H.24V4.6c0-.33.26-.59.59-.59h3.19Z"/>
        <line class="cls-1" x1=".54" y1="4.09" x2="2.69" y2="1.94"/>
      </g>
      <g>
        <line class="cls-1" x1="6.95" y1="4.62" x2="13.87" y2="4.62"/>
        <line class="cls-1" x1="2.77" y1="7.84" x2="13.87" y2="7.84"/>
        <line class="cls-1" x1="2.77" y1="11.05" x2="13.87" y2="11.05"/>
        <line class="cls-1" x1="2.77" y1="14.27" x2="13.87" y2="14.27"/>
        <line class="cls-1" x1="2.77" y1="17.48" x2="13.87" y2="17.48"/>
      </g>
    </g>
    <g id="Written_Document-2" data-name="Written_Document">
      <g id="Document-2" data-name="Document">
        <polyline class="cls-1" points="17.98 3.42 19.14 3.42 19.14 23.76 3.42 23.76 3.42 22.63"/>
      </g>
    </g>
  </g>
  <path class="cls-3" d="M19.93,3.34c0,.18-.18.35-.22.52-.04.18.05.4-.03.56-.08.16-.31.23-.42.37-.11.14-.13.38-.27.49-.14.11-.38.07-.54.15-.16.08-.28.29-.46.33-.17.04-.37-.1-.55-.1s-.38.14-.55.1c-.18-.04-.3-.25-.46-.33-.16-.08-.4-.04-.54-.15-.14-.11-.16-.35-.27-.49-.11-.14-.34-.21-.42-.37-.08-.16.01-.38-.03-.56-.04-.17-.22-.33-.22-.52s.18-.35.22-.52c.04-.18-.05-.4.03-.56.08-.16.31-.23.42-.37.11-.14.13-.38.27-.49.14-.11.38-.07.54-.15.16-.08.28-.29.46-.33.17-.04.37.1.55.1s.38-.14.55-.1c.18.04.3.25.46.33.16.08.4.04.54.15.14.11.16.35.27.49.11.14.34.21.42.37.08.16-.01.38.03.56.04.17.22.33.22.52Z"/>
  <circle class="cls-2" cx="17.44" cy="3.34" r="1.5"/>
  <path class="cls-2" d="M16.4,5.42v1.86c0,.11.13.17.22.1l.83-.69h0s.83.69.83.69c.09.07.22.01.22-.1v-1.86"/>
</svg>