<?xml version="1.0" encoding="UTF-8"?>
<svg id="Layer_1" xmlns="http://www.w3.org/2000/svg" viewBox="0 0 22.94 24.53">
  <defs>
    <style>
      .cls-1 {
        fill: none;
        stroke: #ec1c24;
        stroke-linecap: round;
        stroke-linejoin: round;
        stroke-width: .48px;
      }
    </style>
  </defs>
  <g id="Approved">
    <g id="Written_Document">
      <g id="Document">
        <path class="cls-1" d="M13.61,24.29H.24V5.26c0-.26.14-.48.35-.6.1-.05.21-.08.33-.08h3.66V.92c0-.38.3-.68.68-.68h13.56v12.88"/>
        <line class="cls-1" x1=".59" y1="4.67" x2="3.06" y2="2.2"/>
      </g>
      <g>
        <line class="cls-1" x1="7.96" y1="5.28" x2="15.91" y2="5.28"/>
        <line class="cls-1" x1="3.15" y1="8.98" x2="15.91" y2="8.98"/>
        <line class="cls-1" x1="3.15" y1="12.68" x2="15.91" y2="12.68"/>
        <line class="cls-1" x1="3.15" y1="16.37" x2="12.91" y2="16.37"/>
        <line class="cls-1" x1="3.15" y1="20.07" x2="12.91" y2="20.07"/>
      </g>
    </g>
    <g>
      <path class="cls-1" d="M17.41,20.74c.13-.56.2-1.14.2-1.71,0-.15,0-.31-.01-.46-.04-.57-.16-1.13-.35-1.66-.06-.18-.12-.4-.12-.56,0-.94.76-1.71,1.71-1.71s1.7.76,1.7,1.71c0,.16-.06.37-.13.56-.22.61-.35,1.25-.37,1.9-.02.65.05,1.3.19,1.94"/>
      <path class="cls-1" d="M16.89,20.74h3.86c1.08,0,1.95.87,1.95,1.95v.36h-7.76v-.36c0-1.08.87-1.95,1.95-1.95Z"/>
      <polygon class="cls-1" points="22.7 23.05 22.7 24.29 20.49 24.29 14.94 24.29 14.94 23.05 20.42 23.05 22.7 23.05"/>
    </g>
  </g>
</svg>