<?xml version="1.0" encoding="UTF-8"?>
<svg id="Layer_1" xmlns="http://www.w3.org/2000/svg" viewBox="0 0 40.28 24.9">
  <defs>
    <style>
      .cls-1 {
        fill: none;
        stroke: #ec1c24;
        stroke-linecap: round;
        stroke-linejoin: round;
        stroke-width: .68px;
      }
    </style>
  </defs>
  <g id="Fast_Delivery">
    <path class="cls-1" d="M14.64,19.86h12.76V3.47c0-1.73-1.4-3.13-3.13-3.13H8.1"/>
    <polyline class="cls-1" points="29.88 19.86 27.4 19.86 27.4 6.12 35.16 6.12 36.71 8.12 39.94 12.29 39.94 12.99 39.94 19.86 36.46 19.86"/>
    <circle class="cls-1" cx="11.35" cy="21.06" r="3.5"/>
    <circle class="cls-1" cx="33.17" cy="21.06" r="3.5"/>
    <polyline class="cls-1" points="39.94 12.29 39.94 12.99 32.25 12.99 31.12 8.12 36.71 8.12"/>
    <line class="cls-1" x1="27.4" y1="15.24" x2="15.53" y2="15.24"/>
    <g>
      <line class="cls-1" x1="9.04" y1="3.91" x2="2.45" y2="3.91"/>
      <line class="cls-1" x1="10.04" y1="7" x2="6.63" y2="7"/>
      <line class="cls-1" x1="7.98" y1="10.1" x2=".34" y2="10.1"/>
      <line class="cls-1" x1="11.15" y1="13.2" x2="6.68" y2="13.2"/>
      <line class="cls-1" x1="8.63" y1="16.3" x2="3.11" y2="16.3"/>
    </g>
  </g>
</svg>