<?xml version="1.0" encoding="UTF-8"?>
<svg id="Layer_1" xmlns="http://www.w3.org/2000/svg" viewBox="0 0 37.13 24.77">
  <defs>
    <style>
      .cls-1, .cls-2 {
        fill: none;
      }

      .cls-1, .cls-2, .cls-3 {
        stroke: #ec1c24;
        stroke-linecap: round;
        stroke-linejoin: round;
      }

      .cls-1, .cls-3 {
        stroke-width: .53px;
      }

      .cls-2 {
        stroke-width: .67px;
      }

      .cls-3 {
        fill: #fff;
      }
    </style>
  </defs>
  <g id="Card">
    <g id="Card-2" data-name="Card">
      <path class="cls-2" d="M.33,14.82h2.46s1.64-1.86,4.84-1.86"/>
      <path class="cls-2" d="M5.07,19.29s2.01-2.57,5.44-2.57l3.87-3.39c.55-.48,1.38-.45,1.9.06h0c.54.54.54,1.42,0,1.96l-4.66,4.66"/>
      <path class="cls-2" d="M18.56,18.45l-4.96,4.96c-.66.66-1.54,1.02-2.47,1.02h-6.16c-.69,0-1.37-.18-1.98-.51l-1.1-.61H.33"/>
    </g>
    <g id="Card-3" data-name="Card">
      <path class="cls-2" d="M9.3,13.39V1.55c0-.35.14-.67.36-.89.2-.2.46-.33.76-.33h22.25c.08,0,.15,0,.22.02.51.11.89.6.89,1.19v14.01c0,.67-.5,1.22-1.11,1.22h-15.08"/>
    </g>
  </g>
  <path class="cls-3" d="M31.51,21.39c5.36,0,5.36-9.14,5.36-9.14-2.22,0-5.36-1.57-5.36-1.57h0s-3.14,1.57-5.36,1.57c0,0,0,9.14,5.36,9.14"/>
  <polyline class="cls-1" points="28.92 15.97 30.69 17.74 34.1 14.33"/>
</svg>